<?xml version="1.0" encoding="UTF-8"?>
<svg version="1.1" xmlns="http://www.w3.org/2000/svg" width="480" height="240">
<path d="M0 0 C158.4 0 316.8 0 480 0 C480 79.2 480 158.4 480 240 C321.6 240 163.2 240 0 240 C0 160.8 0 81.6 0 0 Z " fill="#EEE7FD" transform="translate(0,0)"/>
<path d="M0 0 C34.98 0 69.96 0 106 0 C106 34.98 106 69.96 106 106 C89.83 106 73.66 106 57 106 C57.33 108.31 57.66 110.62 58 113 C57.01 113 56.02 113 55 113 C54.54625 111.865625 54.0925 110.73125 53.625 109.5625 C52.42904194 105.95278308 52.42904194 105.95278308 50 105 C49.7421875 105.71800781 49.484375 106.43601562 49.21875 107.17578125 C43.33771376 120.80395177 30.72156891 132.56550075 17.12890625 138.1875 C13.55119973 139.11654239 10.8526666 138.86199176 7.1875 138.5 C1.95062738 138.3869581 1.95062738 138.3869581 -2.453125 140.90234375 C-3.89345921 142.63341208 -5.29332633 144.39875478 -6.65625 146.19140625 C-14.8667395 156.0303095 -28.53129725 162.80787146 -41 165 C-43.56246539 165.01331843 -46.12503165 165.01273593 -48.6875 165 C-54.09359173 165.23360238 -54.09359173 165.23360238 -58.41796875 168.1875 C-59.73984277 170.08719919 -60.99728681 172.03312993 -62.19140625 174.015625 C-69.93165662 186.78787398 -84.12881691 194.19360863 -97.94921875 198.625 C-100.77611513 199.1419182 -103.50292892 199.1316948 -106.375 199.125 C-107.47585937 199.12757813 -108.57671875 199.13015625 -109.7109375 199.1328125 C-113 199 -113 199 -116.203125 198.2734375 C-119.01178022 197.67769256 -119.01178022 197.67769256 -120.8359375 199.40625 C-121.34382813 200.0971875 -121.85171875 200.788125 -122.375 201.5 C-125.34949695 205.27076715 -128.48173916 208.30968899 -132.15625 211.390625 C-134.22285586 213.1276211 -134.22285586 213.1276211 -136.625 215.9375 C-139 218 -139 218 -142.3125 218.3125 C-143.6428125 218.1578125 -143.6428125 218.1578125 -145 218 C-141.85100748 214.74604106 -138.5695412 211.69954902 -135.1875 208.6875 C-130.62667586 204.61216089 -126.27013211 200.3774818 -122 196 C-122.4640625 194.8553125 -122.4640625 194.8553125 -122.9375 193.6875 C-126.51087391 184.648966 -125.19275406 177.93802107 -121.55078125 169.15625 C-117.9859176 161.90080962 -113.17684903 155.84474055 -106 152 C-102.1875 152 -102.1875 152 -99 153 C-95.95891646 157.56162531 -96.26295043 161.65808109 -97 167 C-99.95685609 175.95504989 -105.9003576 183.08408598 -111.8046875 190.26171875 C-114.10425152 192.54509595 -114.10425152 192.54509595 -114 194 C-104.38748663 194.4670047 -96.8230562 194.23784589 -88 190 C-87.23300781 189.63777344 -86.46601563 189.27554688 -85.67578125 188.90234375 C-75.18910368 183.50344343 -65.63473006 175.50174625 -60 165 C-60.19638918 161.76425453 -60.87134724 160.21099053 -62.5625 157.4375 C-64.9401585 151.7517949 -65.10256063 145.49426906 -63.23828125 139.5859375 C-61.47633869 135.86705478 -59.45783331 132.3052222 -56 130 C-51.95300415 129.19729008 -49.02182461 129.36135962 -45.5 131.5625 C-43.4414799 134.90759516 -43.23794794 137.24835908 -44 141 C-46.3543749 148.29577043 -49.41680622 155.23174508 -53 162 C-35.15249819 160.20722246 -19.67854158 154.01422599 -7 141 C-5.46498565 139.04709764 -4.24123049 137.15866172 -3 135 C-3.33 134.34 -3.66 133.68 -4 133 C-4.5395018 126.74177913 -3.65518735 122.20772512 0 117 C3 115 3 115 5.6875 115.375 C6.450625 115.58125 7.21375 115.7875 8 116 C8.4355885 121.9893419 7.5675236 125.75083838 4.875 131.1171875 C3.85951902 132.95625158 3.85951902 132.95625158 4 135 C13.68319691 135.93107663 21.59089588 131.98870592 29 126 C29.66 126 30.32 126 31 126 C31.33 125.01 31.66 124.02 32 123 C33.66666667 121.33333333 35.33333333 119.66666667 37 118 C38.70481618 115.79537027 40.26163985 113.50217812 41.8125 111.1875 C42.21919922 110.59001953 42.62589844 109.99253906 43.04492188 109.37695312 C44.03479703 107.92125436 45.01809735 106.46108826 46 105 C43.03 105.99 43.03 105.99 40 107 C20.2 106.505 20.2 106.505 0 106 C0 71.02 0 36.04 0 0 Z " fill="#D89DFC" transform="translate(356,22)"/>
<path d="M0 0 C3.46162804 3.46162804 4.94408387 6.20397397 5.09765625 11.13671875 C5.08605469 12.30847656 5.07445312 13.48023437 5.0625 14.6875 C5.05347656 15.86699219 5.04445313 17.04648438 5.03515625 18.26171875 C5.02355469 19.16535156 5.01195312 20.06898437 5 21 C5.68707031 20.43410156 6.37414062 19.86820313 7.08203125 19.28515625 C7.98308594 18.55167969 8.88414062 17.81820312 9.8125 17.0625 C10.70582031 16.33160156 11.59914063 15.60070312 12.51953125 14.84765625 C17.04306408 11.47815856 21.55943743 11.4645492 27 12 C30.90289268 13.66080539 32.39804919 15.14552446 34 19 C35.10044634 25.69224924 33.41576092 31.25816876 30 37 C27.09781059 41.0040902 24.01465952 44.11013733 20 47 C20.65226562 47.17015625 21.30453125 47.3403125 21.9765625 47.515625 C27.30876082 48.99416967 31.57363294 50.54527449 36 54 C36.61875 54.433125 37.2375 54.86625 37.875 55.3125 C39.79059983 58.18589974 39.34062438 60.65052692 39 64 C36.53817043 70.47849886 32.17464925 74.91267537 26 78 C21.1676196 79.51874812 16.01412699 79.08762552 11 79 C11.3609375 79.73863281 11.721875 80.47726563 12.09375 81.23828125 C15.89239892 89.54254986 18.04590708 97.20017207 14.75 106.0625 C13 109 13 109 11.25 110.4375 C4.95364727 112.01158818 -0.33992595 110.84163554 -6 108 C-12.14108389 103.98949623 -15.31034798 98.23311037 -19 92 C-19.52787109 93.08667969 -19.52787109 93.08667969 -20.06640625 94.1953125 C-23.77711934 101.46172194 -27.30506266 106.35157381 -34.4375 110.375 C-38.79507688 111.43782363 -42.80411749 112.31270339 -46.77734375 109.9375 C-51.61423516 105.58548035 -52.70483029 100.62790401 -53.21484375 94.359375 C-53.43627523 88.01757749 -52.42674939 82.85019942 -50 77 C-54.51300838 77.55923691 -54.51300838 77.55923691 -58.9375 78.5625 C-63.49974384 79.53024869 -67.51566759 79.59373297 -71.8125 77.875 C-75.22400789 74.95085038 -76.62434253 72.17505674 -77.390625 67.73828125 C-77.89027133 60.50476501 -75.41919531 55.6112151 -71 50 C-65.89442088 44.68168841 -60.13649038 40.97392287 -53 39 C-51.68 39 -50.36 39 -49 39 C-49.3609375 38.24976563 -49.721875 37.49953125 -50.09375 36.7265625 C-53.09814856 30.10019457 -55.39287465 24.31892315 -54 17 C-52.50138506 13.1443402 -50.28690832 9.57236303 -47 7 C-41.99453824 5.33151275 -37.74972046 5.40529773 -32.9375 7.5625 C-27.45674892 10.57425254 -23.9372455 14.65688624 -21.625 20.4375 C-21.41875 21.283125 -21.2125 22.12875 -21 23 C-20.93683594 22.40574219 -20.87367188 21.81148437 -20.80859375 21.19921875 C-19.70644919 13.73944028 -16.82563594 7.81203848 -12 2 C-7.65858203 -1.14448498 -5.2252826 -1.52008221 0 0 Z " fill="#020203" transform="translate(217,75)"/>
<path d="M0 0 C29.04 0 58.08 0 88 0 C88 29.04 88 58.08 88 88 C58.96 88 29.92 88 0 88 C0 58.96 0 29.92 0 0 Z " fill="#C3F374" transform="translate(0,20)"/>
<path d="M0 0 C23.43 0 46.86 0 71 0 C71 23.43 71 46.86 71 71 C47.57 71 24.14 71 0 71 C0 47.57 0 24.14 0 0 Z " fill="#D79DFA" transform="translate(22,140)"/>
<path d="M0 0 C21.12 0 42.24 0 64 0 C64 21.12 64 42.24 64 64 C42.88 64 21.76 64 0 64 C0 42.88 0 21.76 0 0 Z " fill="#F7FB61" transform="translate(260,22)"/>
<path d="M0 0 C1.72658686 1.55557825 3.3447174 3.17249667 4.95166016 4.85107422 C5.77730469 5.6602832 5.77730469 5.6602832 6.61962891 6.48583984 C12.62512454 12.59934799 16.24350862 19.57947003 16.51416016 28.22607422 C16.34112173 38.93872575 11.48082233 47.08703953 4.20166016 54.66357422 C-2.9487809 61.38885391 -10.66588202 65.75792462 -20.61083984 66.16357422 C-33.00836727 65.68490521 -42.7331658 61.25881545 -51.11083984 52.28857422 C-57.48186723 44.26837081 -57.90632709 35.62470228 -56.79833984 25.66357422 C-55.70371977 22.12060102 -54.09061556 19.55964284 -51.79833984 16.66357422 C-51.13189453 15.82052734 -50.46544922 14.97748047 -49.77880859 14.10888672 C-38.64818224 0.97045911 -16.44573908 -12.22155522 0 0 Z " fill="#D69CF9" transform="translate(429.79833984375,43.33642578125)"/>
<path d="M0 0 C14.52 0 29.04 0 44 0 C44 21.12 44 42.24 44 64 C29.48 64 14.96 64 0 64 C0 42.88 0 21.76 0 0 Z " fill="#D4F76A" transform="translate(385,176)"/>
<path d="M0 0 C2.015625 0.86328125 2.015625 0.86328125 3.28125 3.0078125 C3.60609375 3.88824219 3.9309375 4.76867187 4.265625 5.67578125 C4.60078125 6.54847656 4.9359375 7.42117187 5.28125 8.3203125 C6.015625 10.86328125 6.015625 10.86328125 6.015625 14.86328125 C5.025625 14.86328125 4.035625 14.86328125 3.015625 14.86328125 C2.561875 13.72890625 2.108125 12.59453125 1.640625 11.42578125 C0.44466694 7.81606433 0.44466694 7.81606433 -1.984375 6.86328125 C-2.2421875 7.58128906 -2.5 8.29929688 -2.765625 9.0390625 C-8.64666124 22.66723302 -21.26280609 34.428782 -34.85546875 40.05078125 C-38.43317527 40.97982364 -41.1317084 40.72527301 -44.796875 40.36328125 C-50.03374762 40.25023935 -50.03374762 40.25023935 -54.4375 42.765625 C-55.87783421 44.49669333 -57.27770133 46.26203603 -58.640625 48.0546875 C-66.8511145 57.89359075 -80.51567225 64.67115271 -92.984375 66.86328125 C-95.54684039 66.87659968 -98.10940665 66.87601718 -100.671875 66.86328125 C-106.07796673 67.09688363 -106.07796673 67.09688363 -110.40234375 70.05078125 C-111.72421777 71.95048044 -112.98166181 73.89641118 -114.17578125 75.87890625 C-121.91603162 88.65115523 -136.11319191 96.05688988 -149.93359375 100.48828125 C-152.76049013 101.00519945 -155.48730392 100.99497605 -158.359375 100.98828125 C-159.46023437 100.99085938 -160.56109375 100.9934375 -161.6953125 100.99609375 C-164.984375 100.86328125 -164.984375 100.86328125 -168.1875 100.13671875 C-170.99615522 99.54097381 -170.99615522 99.54097381 -172.8203125 101.26953125 C-173.32820313 101.96046875 -173.83609375 102.65140625 -174.359375 103.36328125 C-177.33387195 107.1340484 -180.46611416 110.17297024 -184.140625 113.25390625 C-186.20723086 114.99090235 -186.20723086 114.99090235 -188.609375 117.80078125 C-190.984375 119.86328125 -190.984375 119.86328125 -194.296875 120.17578125 C-195.18375 120.07265625 -196.070625 119.96953125 -196.984375 119.86328125 C-193.83538248 116.60932231 -190.5539162 113.56283027 -187.171875 110.55078125 C-182.61105086 106.47544214 -178.25450711 102.24076305 -173.984375 97.86328125 C-174.4484375 96.71859375 -174.4484375 96.71859375 -174.921875 95.55078125 C-178.49524891 86.51224725 -177.17712906 79.80130232 -173.53515625 71.01953125 C-169.9702926 63.76409087 -165.16122403 57.7080218 -157.984375 53.86328125 C-154.171875 53.86328125 -154.171875 53.86328125 -150.984375 54.86328125 C-147.94329146 59.42490656 -148.24732543 63.52136234 -148.984375 68.86328125 C-151.94123109 77.81833114 -157.8847326 84.94736723 -163.7890625 92.125 C-166.08862652 94.4083772 -166.08862652 94.4083772 -165.984375 95.86328125 C-156.37186163 96.33028595 -148.8074312 96.10112714 -139.984375 91.86328125 C-138.83388672 91.31994141 -138.83388672 91.31994141 -137.66015625 90.765625 C-127.17347868 85.36672468 -117.61910506 77.3650275 -111.984375 66.86328125 C-112.18076418 63.62753578 -112.85572224 62.07427178 -114.546875 59.30078125 C-116.9245335 53.61507615 -117.08693563 47.35755031 -115.22265625 41.44921875 C-113.46071369 37.73033603 -111.44220831 34.16850345 -107.984375 31.86328125 C-103.93737915 31.06057133 -101.00619961 31.22464087 -97.484375 33.42578125 C-95.4258549 36.77087641 -95.22232294 39.11164033 -95.984375 42.86328125 C-98.3387499 50.15905168 -101.40118122 57.09502633 -104.984375 63.86328125 C-87.13687319 62.07050371 -71.66291658 55.87750724 -58.984375 42.86328125 C-57.44936065 40.91037889 -56.22560549 39.02194297 -54.984375 36.86328125 C-55.314375 36.20328125 -55.644375 35.54328125 -55.984375 34.86328125 C-56.5238768 28.60506038 -55.63956235 24.07100637 -51.984375 18.86328125 C-48.984375 16.86328125 -48.984375 16.86328125 -46.296875 17.23828125 C-45.1521875 17.54765625 -45.1521875 17.54765625 -43.984375 17.86328125 C-43.5487865 23.85262315 -44.4168514 27.61411963 -47.109375 32.98046875 C-48.12485598 34.81953283 -48.12485598 34.81953283 -47.984375 36.86328125 C-38.30117809 37.79435788 -30.39347912 33.85198717 -22.984375 27.86328125 C-22.324375 27.86328125 -21.664375 27.86328125 -20.984375 27.86328125 C-20.654375 26.87328125 -20.324375 25.88328125 -19.984375 24.86328125 C-18.31770833 23.19661458 -16.65104167 21.52994792 -14.984375 19.86328125 C-13.27955882 17.65865152 -11.72273515 15.36545937 -10.171875 13.05078125 C-9.76517578 12.45330078 -9.35847656 11.85582031 -8.93945312 11.24023438 C-7.94957797 9.78453561 -6.96627765 8.32436951 -5.984375 6.86328125 C-6.891875 7.19328125 -7.799375 7.52328125 -8.734375 7.86328125 C-11.984375 8.86328125 -11.984375 8.86328125 -15.984375 8.86328125 C-14.984375 5.86328125 -14.984375 5.86328125 -12.55078125 4.51171875 C-11.55949219 4.09148437 -10.56820312 3.67125 -9.546875 3.23828125 C-8.06380859 2.60019531 -8.06380859 2.60019531 -6.55078125 1.94921875 C-5.70386719 1.59085937 -4.85695313 1.2325 -3.984375 0.86328125 C-1.984375 -0.13671875 -1.984375 -0.13671875 0 0 Z " fill="#18111B" transform="translate(407.984375,120.13671875)"/>
<path d="M0 0 C0.66 0.33 1.32 0.66 2 1 C4.37123246 1.23029956 6.74741943 1.41119942 9.125 1.5625 C10.40632813 1.64628906 11.68765625 1.73007813 13.0078125 1.81640625 C14.48894531 1.90728516 14.48894531 1.90728516 16 2 C16 2.33 16 2.66 16 3 C11.38 3 6.76 3 2 3 C2 9.27 2 15.54 2 22 C6.95 22 11.9 22 17 22 C17 16.06 17 10.12 17 4 C17.33 4 17.66 4 18 4 C18 9.94 18 15.88 18 22 C23.94 22 29.88 22 36 22 C36 16.06 36 10.12 36 4 C36.66 4 37.32 4 38 4 C38 9.94 38 15.88 38 22 C42.95 22 47.9 22 53 22 C53 27.28 53 32.56 53 38 C23.96 38 -5.08 38 -35 38 C-35 26.12 -35 14.24 -35 2 C-24.53765679 1.38906025 -14.18804901 0.88378594 -3.7109375 1.0625 C-1.0839323 1.31413933 -1.0839323 1.31413933 0 0 Z " fill="#C0F576" transform="translate(35,70)"/>
<path d="M0 0 C4.95 0 9.9 0 15 0 C15 11.88 15 23.76 15 36 C10.05 36 5.1 36 0 36 C0 30.06 0 24.12 0 18 C-0.66 18 -1.32 18 -2 18 C-2 23.94 -2 29.88 -2 36 C-13.22 36 -24.44 36 -36 36 C-36 24.45 -36 12.9 -36 1 C-24.78 1 -13.56 1 -2 1 C-2 5.62 -2 10.24 -2 15 C-1.34 15 -0.68 15 0 15 C0 10.05 0 5.1 0 0 Z " fill="#ADEB6C" transform="translate(73,56)"/>
<path d="M0 0 C6.6 0 13.2 0 20 0 C20 21.12 20 42.24 20 64 C13.4 64 6.8 64 0 64 C0 42.88 0 21.76 0 0 Z " fill="#DDFA6B" transform="translate(409,176)"/>
<path d="M0 0 C2.015625 0.86328125 2.015625 0.86328125 3.28125 3.0078125 C3.76851562 4.32845703 3.76851562 4.32845703 4.265625 5.67578125 C4.76835937 6.98482422 4.76835937 6.98482422 5.28125 8.3203125 C6.015625 10.86328125 6.015625 10.86328125 6.015625 14.86328125 C5.025625 14.86328125 4.035625 14.86328125 3.015625 14.86328125 C2.561875 13.72890625 2.108125 12.59453125 1.640625 11.42578125 C0.44466694 7.81606433 0.44466694 7.81606433 -1.984375 6.86328125 C-2.2421875 7.58128906 -2.5 8.29929688 -2.765625 9.0390625 C-8.64666124 22.66723302 -21.26280609 34.428782 -34.85546875 40.05078125 C-38.43317527 40.97982364 -41.1317084 40.72527301 -44.796875 40.36328125 C-50.03374762 40.25023935 -50.03374762 40.25023935 -54.4375 42.765625 C-55.87783421 44.49669333 -57.27770133 46.26203603 -58.640625 48.0546875 C-67.47575415 58.64211726 -82.58905614 65.92287343 -96.1796875 67.15234375 C-105.57565517 67.40628882 -105.57565517 67.40628882 -109.984375 63.86328125 C-109.984375 62.54328125 -109.984375 61.22328125 -109.984375 59.86328125 C-110.47035156 59.2290625 -110.95632813 58.59484375 -111.45703125 57.94140625 C-114.28895753 54.08824824 -113.58144089 49.43240655 -112.984375 44.86328125 C-111.91519905 41.90569063 -110.62144798 39.57468337 -108.984375 36.86328125 C-109.314375 36.86328125 -109.644375 36.86328125 -109.984375 36.86328125 C-110.974375 36.86328125 -111.964375 36.86328125 -112.984375 36.86328125 C-109.22151366 32.15970457 -109.22151366 32.15970457 -106.01171875 31.390625 C-102.63148303 31.24530645 -100.3546116 31.63188338 -97.484375 33.42578125 C-95.4258549 36.77087641 -95.22232294 39.11164033 -95.984375 42.86328125 C-98.3387499 50.15905168 -101.40118122 57.09502633 -104.984375 63.86328125 C-87.13687319 62.07050371 -71.66291658 55.87750724 -58.984375 42.86328125 C-57.44936065 40.91037889 -56.22560549 39.02194297 -54.984375 36.86328125 C-55.314375 36.20328125 -55.644375 35.54328125 -55.984375 34.86328125 C-56.5238768 28.60506038 -55.63956235 24.07100637 -51.984375 18.86328125 C-48.984375 16.86328125 -48.984375 16.86328125 -46.296875 17.23828125 C-45.1521875 17.54765625 -45.1521875 17.54765625 -43.984375 17.86328125 C-43.5487865 23.85262315 -44.4168514 27.61411963 -47.109375 32.98046875 C-48.12485598 34.81953283 -48.12485598 34.81953283 -47.984375 36.86328125 C-38.30117809 37.79435788 -30.39347912 33.85198717 -22.984375 27.86328125 C-22.324375 27.86328125 -21.664375 27.86328125 -20.984375 27.86328125 C-20.489375 26.37828125 -20.489375 26.37828125 -19.984375 24.86328125 C-18.31770833 23.19661458 -16.65104167 21.52994792 -14.984375 19.86328125 C-13.27955882 17.65865152 -11.72273515 15.36545937 -10.171875 13.05078125 C-9.76517578 12.45330078 -9.35847656 11.85582031 -8.93945312 11.24023438 C-7.94957797 9.78453561 -6.96627765 8.32436951 -5.984375 6.86328125 C-6.891875 7.19328125 -7.799375 7.52328125 -8.734375 7.86328125 C-11.984375 8.86328125 -11.984375 8.86328125 -15.984375 8.86328125 C-14.984375 5.86328125 -14.984375 5.86328125 -12.55078125 4.51171875 C-11.55949219 4.09148437 -10.56820312 3.67125 -9.546875 3.23828125 C-8.06380859 2.60019531 -8.06380859 2.60019531 -6.55078125 1.94921875 C-5.70386719 1.59085937 -4.85695313 1.2325 -3.984375 0.86328125 C-1.984375 -0.13671875 -1.984375 -0.13671875 0 0 Z " fill="#1A131F" transform="translate(407.984375,120.13671875)"/>
<path d="M0 0 C0.99 0 1.98 0 3 0 C3.06058594 1.14339844 3.12117188 2.28679687 3.18359375 3.46484375 C3.26798428 4.95574305 3.35263302 6.44662775 3.4375 7.9375 C3.47681641 8.69224609 3.51613281 9.44699219 3.55664062 10.22460938 C3.44038024 13.91944187 3.44038024 13.91944187 5 17 C6.65 13.37 8.3 9.74 10 6 C10.66 6 11.32 6 12 6 C12.2140723 10.49551832 11.50121825 13.78004004 10 18 C10.62648437 17.13375 11.25296875 16.2675 11.8984375 15.375 C12.72361968 14.24975157 13.54915902 13.12476501 14.375 12 C14.99375 11.14148438 14.99375 11.14148438 15.625 10.265625 C16.70171719 8.80684688 17.84666578 7.39899024 19 6 C19.66 6 20.32 6 21 6 C19.71014697 12.8533155 14.37834667 18.77966358 10 24 C16.11234606 24.19576909 21.22477155 24.25374769 27 22 C28.32 22 29.64 22 31 22 C30.4140625 23.89453125 30.4140625 23.89453125 29 26 C26.0234375 27.01171875 26.0234375 27.01171875 22.375 27.6875 C21.18648437 27.91824219 19.99796875 28.14898437 18.7734375 28.38671875 C14.85389207 29.02374632 10.94312233 29.53431116 7 30 C7.48879639 30.31227539 7.97759277 30.62455078 8.48120117 30.94628906 C10.71850862 32.37795389 12.95301387 33.81393614 15.1875 35.25 C16.34088867 35.98669922 16.34088867 35.98669922 17.51757812 36.73828125 C25.68135047 41.99392868 25.68135047 41.99392868 29 45 C29 45.66 29 46.32 29 47 C24.72724258 46.43288856 21.94982844 44.93094694 18.375 42.5625 C17.43398437 41.94503906 16.49296875 41.32757813 15.5234375 40.69140625 C14.69070312 40.13324219 13.85796875 39.57507813 13 39 C12.01 38.34 11.02 37.68 10 37 C10.433125 37.96421875 10.86625 38.9284375 11.3125 39.921875 C11.87538471 41.19774701 12.43786348 42.47379817 13 43.75 C13.28617188 44.38421875 13.57234375 45.0184375 13.8671875 45.671875 C15.36006702 49.08417104 16 51.20781917 16 55 C13 54 13 54 11.39453125 50.83984375 C10.85609726 49.54361378 10.32916571 48.24255932 9.8125 46.9375 C9.53986328 46.27427734 9.26722656 45.61105469 8.98632812 44.92773438 C8.3143914 43.28915183 7.65590372 41.64506597 7 40 C6.24287688 44.018118 5.88766161 47.78825175 5.9375 51.875 C5.94652344 52.84179688 5.95554688 53.80859375 5.96484375 54.8046875 C5.97644531 55.52914062 5.98804688 56.25359375 6 57 C4.68 57 3.36 57 2 57 C1.505 47.595 1.505 47.595 1 38 C-0.85198058 42.88680613 -0.85198058 42.88680613 -2.67895508 47.78295898 C-3.36944341 49.5566494 -4.18315082 51.28084054 -5 53 C-6.485 53.495 -6.485 53.495 -8 54 C-7.73958333 51.98177083 -7.47916667 49.96354167 -7.21875 47.9453125 C-6.9627515 45.99501656 -6.9627515 45.99501656 -7 44 C-7.66 44 -8.32 44 -9 44 C-9.33 44.99 -9.66 45.98 -10 47 C-12.375 49.6875 -12.375 49.6875 -15 52 C-15.99 52 -16.98 52 -18 52 C-16.53039839 46.60460947 -12.85289488 43.54832542 -8.9375 39.8125 C-7.65286968 38.57115752 -6.37021719 37.32776399 -5.08984375 36.08203125 C-4.23700806 35.26569214 -4.23700806 35.26569214 -3.36694336 34.43286133 C-1.89035603 33.02555437 -1.89035603 33.02555437 -1 31 C-13.375 32.98 -13.375 32.98 -26 35 C-26.33 33.68 -26.66 32.36 -27 31 C-21.39 30.01 -15.78 29.02 -10 28 C-13.62128718 25.10297026 -17.13461953 22.5209003 -21 20 C-21.99 19.34 -22.98 18.68 -24 18 C-24 17.01 -24 16.02 -24 15 C-18.95881397 16.84997652 -14.60656494 19.55961464 -10.03515625 22.34375 C-7.06973072 23.96194874 -4.23064645 25.03706514 -1 26 C-2.20752964 24.33275095 -3.41607317 22.66623622 -4.625 21 C-5.34945312 19.9996875 -6.07390625 18.999375 -6.8203125 17.96875 C-9.138342 14.8115772 -11.52844854 11.71960715 -13.96875 8.65625 C-15 7 -15 7 -15 4 C-10.77953026 5.55802388 -8.46705813 8.72191625 -5.75 12.125 C-4.1825 14.06375 -2.615 16.0025 -1 18 C-0.67 12.06 -0.34 6.12 0 0 Z " fill="#0B050F" transform="translate(55,146)"/>
<path d="M0 0 C1.72658686 1.55557825 3.3447174 3.17249667 4.95166016 4.85107422 C5.77730469 5.6602832 5.77730469 5.6602832 6.61962891 6.48583984 C12.62512454 12.59934799 16.24350862 19.57947003 16.51416016 28.22607422 C16.34112173 38.93872575 11.48082233 47.08703953 4.20166016 54.66357422 C-2.9487809 61.38885391 -10.66588202 65.75792462 -20.61083984 66.16357422 C-33.00836727 65.68490521 -42.7331658 61.25881545 -51.11083984 52.28857422 C-57.48186723 44.26837081 -57.90632709 35.62470228 -56.79833984 25.66357422 C-55.70371977 22.12060102 -54.09061556 19.55964284 -51.79833984 16.66357422 C-51.13189453 15.82052734 -50.46544922 14.97748047 -49.77880859 14.10888672 C-38.64818224 0.97045911 -16.44573908 -12.22155522 0 0 Z M-43.79833984 12.66357422 C-50.32417915 21.11687661 -53.89705761 26.81725776 -52.79833984 37.66357422 C-51.05750978 45.79479314 -47.57763076 51.77540687 -40.79833984 56.66357422 C-31.55893544 61.94691565 -23.02571031 63.15347579 -12.73583984 60.60107422 C-2.62760955 57.13539526 3.85066437 50.73898469 9.20166016 41.66357422 C9.58451172 41.07447266 9.96736328 40.48537109 10.36181641 39.87841797 C12.70880521 33.68891725 12.36206978 24.32291247 10.36181641 18.01513672 C7.46327826 13.07688654 2.85186064 8.94848405 -1.79833984 5.66357422 C-2.45833984 5.66357422 -3.11833984 5.66357422 -3.79833984 5.66357422 C-3.79833984 4.34357422 -3.79833984 3.02357422 -3.79833984 1.66357422 C-16.42016265 -5.06806461 -34.80981695 3.00923482 -43.79833984 12.66357422 Z " fill="#130A1A" transform="translate(429.79833984375,43.33642578125)"/>
<path d="M0 0 C3.3 0 6.6 0 10 0 C10 21.12 10 42.24 10 64 C6.7 64 3.4 64 0 64 C0 42.88 0 21.76 0 0 Z " fill="#E5FE70" transform="translate(385,176)"/>
<path d="M0 0 C2.015625 0.86328125 2.015625 0.86328125 3.28125 3.0078125 C3.76851563 4.32845703 3.76851563 4.32845703 4.265625 5.67578125 C4.60078125 6.54847656 4.9359375 7.42117187 5.28125 8.3203125 C6.015625 10.86328125 6.015625 10.86328125 6.015625 14.86328125 C5.025625 14.86328125 4.035625 14.86328125 3.015625 14.86328125 C2.561875 13.72890625 2.108125 12.59453125 1.640625 11.42578125 C0.44466694 7.81606433 0.44466694 7.81606433 -1.984375 6.86328125 C-2.2421875 7.58128906 -2.5 8.29929688 -2.765625 9.0390625 C-8.62718159 22.62209268 -21.24535945 34.47940915 -34.8359375 40.02734375 C-39.51719954 41.27025948 -43.94195815 40.8010456 -48.7421875 40.54296875 C-52.08858124 40.56903595 -52.08858124 40.56903595 -54.4140625 42.87109375 C-54.93226563 43.52851563 -55.45046875 44.1859375 -55.984375 44.86328125 C-56.644375 44.53328125 -57.304375 44.20328125 -57.984375 43.86328125 C-57.46875 43.30640625 -56.953125 42.74953125 -56.421875 42.17578125 C-54.72206903 39.99124035 -54.72206903 39.99124035 -55.296875 37.61328125 C-55.52375 36.70578125 -55.750625 35.79828125 -55.984375 34.86328125 C-56.49915982 28.58290641 -55.65751114 24.09657889 -51.984375 18.86328125 C-48.984375 16.86328125 -48.984375 16.86328125 -46.296875 17.23828125 C-45.1521875 17.54765625 -45.1521875 17.54765625 -43.984375 17.86328125 C-43.5487865 23.85262315 -44.4168514 27.61411963 -47.109375 32.98046875 C-48.12485598 34.81953283 -48.12485598 34.81953283 -47.984375 36.86328125 C-38.30117809 37.79435788 -30.39347912 33.85198717 -22.984375 27.86328125 C-22.324375 27.86328125 -21.664375 27.86328125 -20.984375 27.86328125 C-20.489375 26.37828125 -20.489375 26.37828125 -19.984375 24.86328125 C-18.31770833 23.19661458 -16.65104167 21.52994792 -14.984375 19.86328125 C-13.27955882 17.65865152 -11.72273515 15.36545937 -10.171875 13.05078125 C-9.76517578 12.45330078 -9.35847656 11.85582031 -8.93945312 11.24023438 C-7.94957797 9.78453561 -6.96627765 8.32436951 -5.984375 6.86328125 C-6.891875 7.19328125 -7.799375 7.52328125 -8.734375 7.86328125 C-11.984375 8.86328125 -11.984375 8.86328125 -15.984375 8.86328125 C-14.984375 5.86328125 -14.984375 5.86328125 -12.55078125 4.51171875 C-11.55949219 4.09148437 -10.56820312 3.67125 -9.546875 3.23828125 C-8.55816406 2.81289062 -7.56945312 2.3875 -6.55078125 1.94921875 C-5.70386719 1.59085937 -4.85695313 1.2325 -3.984375 0.86328125 C-1.984375 -0.13671875 -1.984375 -0.13671875 0 0 Z " fill="#150F16" transform="translate(407.984375,120.13671875)"/>
<path d="M0 0 C1.66721196 1.66721196 1.33025454 3.58059707 1.4375 5.875 C1.28349504 15.83398743 -4.59606353 22.81497999 -10.6875 30.1875 C-11.40063354 31.0535083 -11.40063354 31.0535083 -12.12817383 31.93701172 C-13.34923477 33.35436462 -14.66881452 34.6855327 -16 36 C-16.99 36 -17.98 36 -19 36 C-20.82007474 34.17992526 -20.21596465 31.4505449 -20.25 29 C-20.12238123 18.37283671 -17.1085141 11.86340055 -10 4 C-6.64640441 0.72625193 -4.7387465 -0.65815924 0 0 Z " fill="#E6F5F9" transform="translate(255,177)"/>
<path d="M0 0 C0.66 0.33 1.32 0.66 2 1 C1.67 1.66 1.34 2.32 1 3 C1.66 3.33 2.32 3.66 3 4 C2.48050781 4.30292969 1.96101563 4.60585938 1.42578125 4.91796875 C-6.77843522 9.8465646 -14.29633064 16.95417161 -18 26 C-19.19629056 34.58268928 -17.47101721 42.87565705 -12.59765625 50.0703125 C-6.26262312 57.2262668 2.47514142 60.02530441 11.76220703 60.69384766 C16.17577068 60.92150547 20.58023299 61 25 61 C22.39854641 63.84921107 20.45691482 64.85893364 16.5390625 65.23828125 C6.0454641 65.50554448 -4.08352607 63.53609831 -12.2890625 56.62890625 C-19.91248873 49.37098676 -23.09558806 43.21556187 -23.5 32.5625 C-23.33007728 25.69762192 -22.24833119 21.36735549 -18 16 C-17.33355469 15.15695313 -16.66710937 14.31390625 -15.98046875 13.4453125 C-11.25996891 7.87330393 -6.30736913 3.66811538 0 0 Z " fill="#13081B" transform="translate(396,44)"/>
<path d="M0 0 C2 2 2 2 2.1953125 5.2578125 C2.17210937 6.53398438 2.14890625 7.81015625 2.125 9.125 C2.10695313 10.40632813 2.08890625 11.68765625 2.0703125 13.0078125 C2.04710937 13.99523438 2.02390625 14.98265625 2 16 C2.74765625 15.57847656 3.4953125 15.15695313 4.265625 14.72265625 C5.25046875 14.17480469 6.2353125 13.62695312 7.25 13.0625 C8.22453125 12.51722656 9.1990625 11.97195312 10.203125 11.41015625 C12.53610409 10.23389165 14.45350762 9.47898309 17 9 C17 9.66 17 10.32 17 11 C15.5390625 12.2890625 15.5390625 12.2890625 13.625 13.625 C12.99851562 14.07101563 12.37203125 14.51703125 11.7265625 14.9765625 C10 16 10 16 8 16 C8 16.66 8 17.32 8 18 C12.29 18 16.58 18 21 18 C21 18.99 21 19.98 21 21 C16.71 21 12.42 21 8 21 C11.10157953 26.83096952 14.85556181 31.86601899 19 37 C18.505 37.99 18.505 37.99 18 39 C16.43426079 37.46162323 14.87256897 35.91912666 13.3125 34.375 C12.44238281 33.51648438 11.57226562 32.65796875 10.67578125 31.7734375 C7.97782165 28.97701222 5.48759054 25.98510865 3 23 C1.68 29.93 0.36 36.86 -1 44 C-1.33 44 -1.66 44 -2 44 C-2 37.07 -2 30.14 -2 23 C-5.3 25.31 -8.6 27.62 -12 30 C-12 27 -12 27 -10 24.8125 C-9.01 23.9153125 -9.01 23.9153125 -8 23 C-11.63 22.67 -15.26 22.34 -19 22 C-19.33 21.01 -19.66 20.02 -20 19 C-16.828262 17.414131 -13.36486178 17.62133555 -9.875 17.4375 C-9.12089844 17.39431641 -8.36679687 17.35113281 -7.58984375 17.30664062 C-5.72678112 17.2005168 -3.86341476 17.09974999 -2 17 C-2.6496875 16.22914062 -3.299375 15.45828125 -3.96875 14.6640625 C-4.8040625 13.66117188 -5.639375 12.65828125 -6.5 11.625 C-7.3353125 10.62726562 -8.170625 9.62953125 -9.03125 8.6015625 C-11 6 -11 6 -11 4 C-6.70761377 5.65091778 -4.1206085 8.73754566 -1 12 C-0.67 8.04 -0.34 4.08 0 0 Z " fill="#2F2713" transform="translate(291,32)"/>
<path d="M0 0 C1.65 0 3.3 0 5 0 C5 21.12 5 42.24 5 64 C3.35 64 1.7 64 0 64 C0 42.88 0 21.76 0 0 Z " fill="#37B14A" transform="translate(375,176)"/>
<path d="M0 0 C1.65 0 3.3 0 5 0 C5 21.12 5 42.24 5 64 C3.35 64 1.7 64 0 64 C0 42.88 0 21.76 0 0 Z " fill="#39AF4C" transform="translate(385,176)"/>
<path d="M0 0 C1.65 0 3.3 0 5 0 C5 21.12 5 42.24 5 64 C3.35 64 1.7 64 0 64 C0 42.88 0 21.76 0 0 Z " fill="#39B050" transform="translate(424,176)"/>
<path d="M0 0 C1.65 0 3.3 0 5 0 C5 21.12 5 42.24 5 64 C3.35 64 1.7 64 0 64 C0 42.88 0 21.76 0 0 Z " fill="#E8FE6E" transform="translate(380,176)"/>
<path d="M0 0 C1.65 0 3.3 0 5 0 C5 21.12 5 42.24 5 64 C3.35 64 1.7 64 0 64 C0 42.88 0 21.76 0 0 Z " fill="#F2FC6C" transform="translate(429,176)"/>
<path d="M0 0 C1.65 0 3.3 0 5 0 C5 21.12 5 42.24 5 64 C3.35 64 1.7 64 0 64 C0 42.88 0 21.76 0 0 Z " fill="#F5FB6C" transform="translate(370,176)"/>
<path d="M0 0 C5.61 0 11.22 0 17 0 C17 5.94 17 11.88 17 18 C11.39 18 5.78 18 0 18 C0 12.06 0 6.12 0 0 Z " fill="#17A851" transform="translate(54,74)"/>
<path d="M0 0 C5.61 0 11.22 0 17 0 C17 5.94 17 11.88 17 18 C11.39 18 5.78 18 0 18 C0 12.06 0 6.12 0 0 Z " fill="#12A752" transform="translate(0,74)"/>
<path d="M0 0 C3.1875 1 3.1875 1 5.1875 4 C6.76666574 12.8524387 3.91604564 19.64349138 -0.8125 27 C-4.28513081 31.82289113 -8.01440114 36.43146827 -11.8125 41 C-12.8025 40.67 -13.7925 40.34 -14.8125 40 C-15.1425 40.66 -15.4725 41.32 -15.8125 42 C-16.4725 41.67 -17.1325 41.34 -17.8125 41 C-18.1425 41.66 -18.4725 42.32 -18.8125 43 C-22.51822872 37.55721094 -23.94402588 33.57079062 -22.8125 27 C-19.99523835 16.95259782 -15.43920303 8.54399845 -7.3125 1.875 C-3.8125 0 -3.8125 0 0 0 Z M-11.8125 10 C-17.9223183 17.85986676 -19.02929982 25.41531092 -19.17578125 35.20703125 C-19.05589844 36.12871094 -18.93601563 37.05039063 -18.8125 38 C-17.8225 38.66 -16.8325 39.32 -15.8125 40 C-9.48351058 33.4208529 -4.0997488 27.1254952 0.1875 19 C0.56519531 18.36320312 0.94289062 17.72640625 1.33203125 17.0703125 C2.43913407 14.39102258 2.41743181 12.20172075 2.375 9.3125 C2.36855469 8.33925781 2.36210937 7.36601562 2.35546875 6.36328125 C2.45000771 4.04410878 2.45000771 4.04410878 1.1875 3 C-4.98055291 2.33318347 -7.81744601 5.72998278 -11.8125 10 Z " fill="#141A1F" transform="translate(253.8125,174)"/>
<path d="M0 0 C5.61 0 11.22 0 17 0 C17 5.61 17 11.22 17 17 C11.39 17 5.78 17 0 17 C0 11.39 0 5.78 0 0 Z " fill="#17A751" transform="translate(54,20)"/>
<path d="M0 0 C5.61 0 11.22 0 17 0 C17 5.61 17 11.22 17 17 C11.39 17 5.78 17 0 17 C0 11.39 0 5.78 0 0 Z " fill="#17A753" transform="translate(0,20)"/>
<path d="M0 0 C4.95 0 9.9 0 15 0 C15 5.94 15 11.88 15 18 C10.05 18 5.1 18 0 18 C0 12.06 0 6.12 0 0 Z " fill="#1CA755" transform="translate(73,74)"/>
<path d="M0 0 C1.32 0 2.64 0 4 0 C4 21.12 4 42.24 4 64 C2.68 64 1.36 64 0 64 C0 42.88 0 21.76 0 0 Z " fill="#2BA54A" transform="translate(415,176)"/>
<path d="M0 0 C1.32 0 2.64 0 4 0 C4 21.12 4 42.24 4 64 C2.68 64 1.36 64 0 64 C0 42.88 0 21.76 0 0 Z " fill="#21A342" transform="translate(405,176)"/>
<path d="M0 0 C1.32 0 2.64 0 4 0 C4 21.12 4 42.24 4 64 C2.68 64 1.36 64 0 64 C0 42.88 0 21.76 0 0 Z " fill="#25A344" transform="translate(395,176)"/>
<path d="M0 0 C5.61 0 11.22 0 17 0 C17 4.95 17 9.9 17 15 C11.39 15 5.78 15 0 15 C0 10.05 0 5.1 0 0 Z " fill="#1EAA50" transform="translate(54,39)"/>
<path d="M0 0 C5.61 0 11.22 0 17 0 C17 4.95 17 9.9 17 15 C11.39 15 5.78 15 0 15 C0 10.05 0 5.1 0 0 Z " fill="#1EAB53" transform="translate(0,39)"/>
<path d="M0 0 C4.95 0 9.9 0 15 0 C15 5.61 15 11.22 15 17 C10.05 17 5.1 17 0 17 C0 11.39 0 5.78 0 0 Z " fill="#13A659" transform="translate(73,20)"/>
<path d="M0 0 C4.95 0 9.9 0 15 0 C15 5.61 15 11.22 15 17 C10.05 17 5.1 17 0 17 C0 11.39 0 5.78 0 0 Z " fill="#0FAB58" transform="translate(19,20)"/>
<path d="M0 0 C4.62 0 9.24 0 14 0 C14 5.94 14 11.88 14 18 C9.38 18 4.76 18 0 18 C0 12.06 0 6.12 0 0 Z " fill="#17A750" transform="translate(37,74)"/>
<path d="M0 0 C4.62 0 9.24 0 14 0 C14 5.94 14 11.88 14 18 C9.38 18 4.76 18 0 18 C0 12.06 0 6.12 0 0 Z " fill="#13A651" transform="translate(20,74)"/>
<path d="M0 0 C5.61 0 11.22 0 17 0 C17 4.62 17 9.24 17 14 C11.39 14 5.78 14 0 14 C0 9.38 0 4.76 0 0 Z " fill="#19A851" transform="translate(54,57)"/>
<path d="M0 0 C5.61 0 11.22 0 17 0 C17 4.62 17 9.24 17 14 C11.39 14 5.78 14 0 14 C0 9.38 0 4.76 0 0 Z " fill="#1AA54C" transform="translate(0,57)"/>
<path d="M0 0 C4.62 0 9.24 0 14 0 C14 5.61 14 11.22 14 17 C9.38 17 4.76 17 0 17 C0 11.39 0 5.78 0 0 Z " fill="#17A750" transform="translate(37,20)"/>
<path d="M0 0 C1 1 1 1 1.375 4.875 C1.31215678 12.74297081 -2.99092944 19.46321633 -7 26 C-10.14123409 23.72260528 -11.73894071 22.38080949 -12.47265625 18.5 C-12.67087909 12.29476324 -11.78300702 7.04822675 -8 2 C-4.77786243 -0.14809171 -3.72224599 -0.29386153 0 0 Z " fill="#E9E0F5" transform="translate(307,155)"/>
<path d="M0 0 C1 2 1 2 0 6 C8.25 6 16.5 6 25 6 C22.28702857 8.03472857 20.13229159 9.5811079 17.1875 11.0625 C16.56230469 11.38347656 15.93710937 11.70445312 15.29296875 12.03515625 C9.47392006 14.48371677 4.35968221 15.23645455 -1.9375 15.125 C-2.62134766 15.11597656 -3.30519531 15.10695312 -4.00976562 15.09765625 C-5.67333287 15.07438958 -7.33671631 15.03853167 -9 15 C-9 10.9255567 -6.90830751 8.88254967 -4.5 5.8125 C-3.85611328 4.97428711 -3.85611328 4.97428711 -3.19921875 4.11914062 C-2.13921945 2.74114153 -1.07043812 1.36990593 0 0 Z " fill="#E6E1F3" transform="translate(251,202)"/>
<path d="M0 0 C4.95 0 9.9 0 15 0 C15 4.95 15 9.9 15 15 C10.05 15 5.1 15 0 15 C0 10.05 0 5.1 0 0 Z " fill="#0EA959" transform="translate(73,39)"/>
<path d="M0 0 C5.61 0 11.22 0 17 0 C17 4.29 17 8.58 17 13 C11.39 13 5.78 13 0 13 C0 8.71 0 4.42 0 0 Z " fill="#19A854" transform="translate(54,95)"/>
<path d="M0 0 C5.61 0 11.22 0 17 0 C17 4.29 17 8.58 17 13 C11.39 13 5.78 13 0 13 C0 8.71 0 4.42 0 0 Z " fill="#15A754" transform="translate(0,95)"/>
<path d="M0 0 C4.95 0 9.9 0 15 0 C15 4.62 15 9.24 15 14 C10.05 14 5.1 14 0 14 C0 9.38 0 4.76 0 0 Z " fill="#24AB56" transform="translate(73,94)"/>
<path d="M0 0 C4.62 0 9.24 0 14 0 C14 4.95 14 9.9 14 15 C9.38 15 4.76 15 0 15 C0 10.05 0 5.1 0 0 Z " fill="#1FA950" transform="translate(37,39)"/>
<path d="M0 0 C4.62 0 9.24 0 14 0 C14 4.62 14 9.24 14 14 C9.38 14 4.76 14 0 14 C0 9.38 0 4.76 0 0 Z " fill="#13A954" transform="translate(37,57)"/>
<path d="M0 0 C4.62 0 9.24 0 14 0 C14 4.62 14 9.24 14 14 C9.38 14 4.76 14 0 14 C0 9.38 0 4.76 0 0 Z " fill="#17A752" transform="translate(74,57)"/>
<path d="M0 0 C4.62 0 9.24 0 14 0 C14 4.62 14 9.24 14 14 C9.38 14 4.76 14 0 14 C0 9.38 0 4.76 0 0 Z " fill="#17A650" transform="translate(20,57)"/>
<path d="M0 0 C4.62 0 9.24 0 14 0 C14 4.62 14 9.24 14 14 C9.38 14 4.76 14 0 14 C0 9.38 0 4.76 0 0 Z " fill="#14A651" transform="translate(20,40)"/>
<path d="M0 0 C0.66 0 1.32 0 2 0 C2.89102307 11.41004546 -0.37279343 20.02136259 -7.77734375 28.69921875 C-16.73136533 37.96796868 -16.73136533 37.96796868 -23 39 C-26.11227195 39 -28.94152152 38.54372951 -32 38 C-32 37.67 -32 37.34 -32 37 C-31.3709375 36.85304687 -30.741875 36.70609375 -30.09375 36.5546875 C-24.28939765 35.03366746 -20.18926914 33.07743774 -15.59375 29.20703125 C-14 28 -14 28 -12 28 C-11.73316406 27.43152344 -11.46632813 26.86304687 -11.19140625 26.27734375 C-10 24 -10 24 -8.52734375 21.87890625 C-3.84490806 15.05658595 -3.0256703 9.18882495 -3 1 C-2.34 1.66 -1.68 2.32 -1 3 C-0.67 2.01 -0.34 1.02 0 0 Z " fill="#13091B" transform="translate(444,67)"/>
<path d="M0 0 C4.62 0 9.24 0 14 0 C14 4.29 14 8.58 14 13 C9.38 13 4.76 13 0 13 C0 8.71 0 4.42 0 0 Z " fill="#17A652" transform="translate(37,95)"/>
<path d="M0 0 C4.62 0 9.24 0 14 0 C14 4.29 14 8.58 14 13 C9.38 13 4.76 13 0 13 C0 8.71 0 4.42 0 0 Z " fill="#14A654" transform="translate(20,95)"/>
<path d="M0 0 C0.99 0 1.98 0 3 0 C3 5.61 3 11.22 3 17 C7.62 17 12.24 17 17 17 C17 11.39 17 5.78 17 0 C17.33 0 17.66 0 18 0 C18 11.22 18 22.44 18 34 C17.67 34 17.34 34 17 34 C17 29.05 17 24.1 17 19 C12.38 19 7.76 19 3 19 C3 23.95 3 28.9 3 34 C2.01 34 1.02 34 0 34 C0 29.38 0 24.76 0 20 C-4.62 20 -9.24 20 -14 20 C-14 24.62 -14 29.24 -14 34 C-14.33 34 -14.66 34 -15 34 C-15 29.05 -15 24.1 -15 19 C-10.05 19 -5.1 19 0 19 C0 12.73 0 6.46 0 0 Z " fill="#A8EA6E" transform="translate(34,20)"/>
<path d="M0 0 C2.015625 0.86328125 2.015625 0.86328125 3.28125 3.0078125 C3.76851563 4.32845703 3.76851563 4.32845703 4.265625 5.67578125 C4.60078125 6.54847656 4.9359375 7.42117187 5.28125 8.3203125 C6.015625 10.86328125 6.015625 10.86328125 6.015625 14.86328125 C5.025625 14.86328125 4.035625 14.86328125 3.015625 14.86328125 C2.561875 13.72890625 2.108125 12.59453125 1.640625 11.42578125 C0.44466694 7.81606433 0.44466694 7.81606433 -1.984375 6.86328125 C-2.24734375 7.58 -2.5103125 8.29671875 -2.78125 9.03515625 C-4.02794503 11.96569911 -5.47235045 14.46230737 -7.234375 17.11328125 C-8.07742188 18.42039063 -8.07742188 18.42039063 -8.9375 19.75390625 C-11.52200155 22.41732388 -13.3515745 22.59646539 -16.984375 22.86328125 C-16.42169922 22.13625 -16.42169922 22.13625 -15.84765625 21.39453125 C-12.26946028 16.70772545 -9.02172174 11.91656609 -5.984375 6.86328125 C-6.891875 7.19328125 -7.799375 7.52328125 -8.734375 7.86328125 C-11.984375 8.86328125 -11.984375 8.86328125 -15.984375 8.86328125 C-14.984375 5.86328125 -14.984375 5.86328125 -12.55078125 4.51171875 C-11.55949219 4.09148437 -10.56820313 3.67125 -9.546875 3.23828125 C-8.55816406 2.81289062 -7.56945312 2.3875 -6.55078125 1.94921875 C-5.70386719 1.59085937 -4.85695313 1.2325 -3.984375 0.86328125 C-1.984375 -0.13671875 -1.984375 -0.13671875 0 0 Z " fill="#0A0311" transform="translate(407.984375,120.13671875)"/>
<path d="M0 0 C0.33 0 0.66 0 1 0 C1 5.94 1 11.88 1 18 C5.62 18 10.24 18 15 18 C15 12.06 15 6.12 15 0 C15.99 0 16.98 0 18 0 C18 6.6 18 13.2 18 20 C22.62 20 27.24 20 32 20 C32 20.33 32 20.66 32 21 C27.38 21 22.76 21 18 21 C18 25.29 18 29.58 18 34 C17.01 34 16.02 34 15 34 C15 29.71 15 25.42 15 21 C10.38 21 5.76 21 1 21 C1 25.29 1 29.58 1 34 C0.67 34 0.34 34 0 34 C-1.01427032 22.54654751 -0.86230656 11.46204409 0 0 Z " fill="#AAE769" transform="translate(19,74)"/>
<path d="M0 0 C0.43957031 0.48082031 0.87914062 0.96164063 1.33203125 1.45703125 C3.46686683 3.43187915 4.82235679 3.47988093 7.6875 3.6875 C8.49574219 3.75324219 9.30398437 3.81898438 10.13671875 3.88671875 C10.75160156 3.92410156 11.36648437 3.96148437 12 4 C12 4.66 12 5.32 12 6 C10.92621094 5.9071875 9.85242188 5.814375 8.74609375 5.71875 C0.85403948 4.99803133 0.85403948 4.99803133 -6.33984375 7.53515625 C-8.03734374 9.54445978 -8.03734374 9.54445978 -9.4921875 11.7734375 C-11.13137698 14.19400228 -12.8891284 15.81464814 -15.125 17.6875 C-17.52319236 19.69829206 -19.52357248 21.58590254 -21.625 23.9375 C-24 26 -24 26 -27.3125 26.3125 C-28.199375 26.209375 -29.08625 26.10625 -30 26 C-26.87116147 22.76686685 -23.61236931 19.7405185 -20.25 16.75 C-11.62552961 9.69303831 -11.62552961 9.69303831 -5 1 C-2 0 -2 0 0 0 Z " fill="#0C090E" transform="translate(241,214)"/>
<path d="M0 0 C0.763125 0.20625 1.52625 0.4125 2.3125 0.625 C2.79986475 7.32626536 1.38958804 11.69061592 -1.6875 17.625 C-3.3375 17.295 -4.9875 16.965 -6.6875 16.625 C-6.6875 15.965 -6.6875 15.305 -6.6875 14.625 C-7.6775 14.955 -8.6675 15.285 -9.6875 15.625 C-10.23488937 10.1511063 -8.70985959 6.11305237 -5.6875 1.625 C-2.6875 -0.375 -2.6875 -0.375 0 0 Z " fill="#100B18" transform="translate(361.6875,137.375)"/>
<path d="M0 0 C0.66 0 1.32 0 2 0 C2 5.61 2 11.22 2 17 C6.95 17 11.9 17 17 17 C17 17.66 17 18.32 17 19 C12.05 19 7.1 19 2 19 C2 23.95 2 28.9 2 34 C1.34 34 0.68 34 0 34 C0 29.05 0 24.1 0 19 C-5.61 19 -11.22 19 -17 19 C-17 18.34 -17 17.68 -17 17 C-11.39 17 -5.78 17 0 17 C0 11.39 0 5.78 0 0 Z " fill="#C3FE88" transform="translate(17,20)"/>
<path d="M0 0 C0.66 0 1.32 0 2 0 C2 5.61 2 11.22 2 17 C6.95 17 11.9 17 17 17 C17 17.66 17 18.32 17 19 C12.05 19 7.1 19 2 19 C2 23.95 2 28.9 2 34 C1.34 34 0.68 34 0 34 C0 29.05 0 24.1 0 19 C-5.61 19 -11.22 19 -17 19 C-17 18.34 -17 17.68 -17 17 C-11.39 17 -5.78 17 0 17 C0 11.39 0 5.78 0 0 Z " fill="#C8FE86" transform="translate(71,20)"/>
<path d="M0 0 C2 2 2 2 2.1953125 5.2578125 C2.17210937 6.53398438 2.14890625 7.81015625 2.125 9.125 C2.10695313 10.40632813 2.08890625 11.68765625 2.0703125 13.0078125 C2.04710937 13.99523438 2.02390625 14.98265625 2 16 C2.74765625 15.57847656 3.4953125 15.15695313 4.265625 14.72265625 C5.25046875 14.17480469 6.2353125 13.62695312 7.25 13.0625 C8.22453125 12.51722656 9.1990625 11.97195312 10.203125 11.41015625 C12.53610409 10.23389165 14.45350762 9.47898309 17 9 C17 9.66 17 10.32 17 11 C15.5390625 12.2890625 15.5390625 12.2890625 13.625 13.625 C12.99851562 14.07101563 12.37203125 14.51703125 11.7265625 14.9765625 C10 16 10 16 8 16 C8 16.66 8 17.32 8 18 C12.29 18 16.58 18 21 18 C21 18.99 21 19.98 21 21 C18.62468606 21.0543965 16.25064117 21.09385864 13.875 21.125 C13.20984375 21.14175781 12.5446875 21.15851562 11.859375 21.17578125 C7.20394043 21.22142277 4.62410975 20.54136992 0 19 C0 12.73 0 6.46 0 0 Z " fill="#332A0E" transform="translate(291,32)"/>
<path d="M0 0 C0.33 0 0.66 0 1 0 C1.3960246 4.48827876 0.08641946 7.07753141 -2 11 C-3.20479396 14.57475049 -3.09998454 18.00154616 -3.0625 21.75 C-3.04896484 23.50570312 -3.04896484 23.50570312 -3.03515625 25.296875 C-3.02355469 26.18890625 -3.01195312 27.0809375 -3 28 C-0.0745356 28.2236068 -0.0745356 28.2236068 2 27 C2 27.66 2 28.32 2 29 C2.66 29.33 3.32 29.66 4 30 C3.34 30.33 2.68 30.66 2 31 C1.34 30.67 0.68 30.34 0 30 C-0.33 30.66 -0.66 31.32 -1 32 C-1.66 31.67 -2.32 31.34 -3 31 C-3.33 31.66 -3.66 32.32 -4 33 C-7.69453503 27.57365168 -9.15969341 23.55521614 -8 17 C-6.13662781 10.94759645 -4.19693158 4.85527379 0 0 Z " fill="#1F1E26" transform="translate(239,184)"/>
<path d="M0 0 C0.66 0 1.32 0 2 0 C2 5.94 2 11.88 2 18 C6.95 18 11.9 18 17 18 C17 18.66 17 19.32 17 20 C12.05 20 7.1 20 2 20 C2 24.62 2 29.24 2 34 C1.34 34 0.68 34 0 34 C0 29.38 0 24.76 0 20 C-5.61 20 -11.22 20 -17 20 C-17 19.67 -17 19.34 -17 19 C-11.72 18.67 -6.44 18.34 -1 18 C-0.67 12.06 -0.34 6.12 0 0 Z " fill="#D2FD81" transform="translate(71,74)"/>
<path d="M0 0 C0.66 0.33 1.32 0.66 2 1 C4.37123246 1.23029956 6.74741943 1.41119942 9.125 1.5625 C10.40632813 1.64628906 11.68765625 1.73007813 13.0078125 1.81640625 C14.48894531 1.90728516 14.48894531 1.90728516 16 2 C16 2.33 16 2.66 16 3 C11.38 3.33 6.76 3.66 2 4 C1.67 9.94 1.34 15.88 1 22 C0.67 22 0.34 22 0 22 C0 16.06 0 10.12 0 4 C-11.55 4 -23.1 4 -35 4 C-35 3.34 -35 2.68 -35 2 C-24.55336257 1.37027805 -14.1779321 0.88395851 -3.7109375 1.0625 C-1.0839323 1.31413933 -1.0839323 1.31413933 0 0 Z " fill="#D3F975" transform="translate(35,70)"/>
<path d="M0 0 C0.33 0.66 0.66 1.32 1 2 C1.66 2.33 2.32 2.66 3 3 C0.81623234 4.13277268 -1.37157128 5.25622789 -3.5625 6.375 C-4.17158203 6.69210938 -4.78066406 7.00921875 -5.40820312 7.3359375 C-11.83692807 10.6013216 -17.6518108 12.2752204 -24.9375 12.125 C-26.08089844 12.10695312 -27.22429687 12.08890625 -28.40234375 12.0703125 C-29.68818359 12.03550781 -29.68818359 12.03550781 -31 12 C-31 11.67 -31 11.34 -31 11 C-27.7 11 -24.4 11 -21 11 C-21 10.34 -21 9.68 -21 9 C-23.97 9 -26.94 9 -30 9 C-30 8.67 -30 8.34 -30 8 C-29.18917969 7.97421875 -28.37835938 7.9484375 -27.54296875 7.921875 C-17.35619566 7.40008453 -8.93551534 4.83000829 0 0 Z " fill="#18151B" transform="translate(274,209)"/>
<path d="M0 0 C4.95 0 9.9 0 15 0 C15 2.31 15 4.62 15 7 C10.05 7 5.1 7 0 7 C0 4.69 0 2.38 0 0 Z " fill="#10A955" transform="translate(0,62)"/>
<path d="M0 0 C0.33 0.66 0.66 1.32 1 2 C3.52733235 2.65555119 3.52733235 2.65555119 6 3 C5.54554036 4.41791408 5.08625056 5.83428046 4.625 7.25 C4.36976562 8.03890625 4.11453125 8.8278125 3.8515625 9.640625 C3.04826333 11.86627958 2.10288338 13.90931672 1 16 C0.34 16 -0.32 16 -1 16 C-0.73958333 13.98177083 -0.47916667 11.96354167 -0.21875 9.9453125 C0.0372485 7.99501656 0.0372485 7.99501656 0 6 C-0.66 6 -1.32 6 -2 6 C-2.33 6.99 -2.66 7.98 -3 9 C-5.375 11.6875 -5.375 11.6875 -8 14 C-8.99 14 -9.98 14 -11 14 C-9.61085525 9.70281047 -7.61968015 7.29312243 -4.375 4.1875 C-3.55773438 3.39730469 -2.74046875 2.60710937 -1.8984375 1.79296875 C-0.95871094 0.90544922 -0.95871094 0.90544922 0 0 Z " fill="#1C0F23" transform="translate(48,184)"/>
<path d="M0 0 C4.50513431 4.23209586 8.514292 8.88695859 12 14 C12 14.66 12 15.32 12 16 C5.69785303 15.66830805 1.14783064 12.32676012 -4 9 C-3.49855469 8.55011719 -2.99710938 8.10023438 -2.48046875 7.63671875 C-1.99191406 7.09660156 -1.50335938 6.55648437 -1 6 C-1.22757731 3.83700789 -1.22757731 3.83700789 -2 2 C-1.34 2 -0.68 2 0 2 C0 1.34 0 0.68 0 0 Z " fill="#CE9CEE" transform="translate(42,156)"/>
<path d="M0 0 C0.99 0 1.98 0 3 0 C3 0.99 3 1.98 3 3 C2.34 3 1.68 3 1 3 C1 8.94 1 14.88 1 21 C-0.33333333 21.66666667 -1.66666667 22.33333333 -3 23 C-5.01169608 20.40468022 -7.00724395 17.79738208 -9 15.1875 C-9.57234375 14.44951172 -10.1446875 13.71152344 -10.734375 12.95117188 C-11.27578125 12.23896484 -11.8171875 11.52675781 -12.375 10.79296875 C-12.87773438 10.1383667 -13.38046875 9.48376465 -13.8984375 8.80932617 C-15 7 -15 7 -15 4 C-10.77953026 5.55802388 -8.46705813 8.72191625 -5.75 12.125 C-4.1825 14.06375 -2.615 16.0025 -1 18 C-0.505 9.09 -0.505 9.09 0 0 Z " fill="#190E23" transform="translate(55,146)"/>
<path d="M0 0 C0.66 0 1.32 0 2 0 C2 0.66 2 1.32 2 2 C2.99 1.67 3.98 1.34 5 1 C5.2165625 1.64710938 5.433125 2.29421875 5.65625 2.9609375 C6.83927221 5.27538625 6.83927221 5.27538625 9.53125 5.5390625 C11.00078125 5.58160156 11.00078125 5.58160156 12.5 5.625 C17.80653951 5.80653951 17.80653951 5.80653951 20 8 C15.49314765 9.50228412 11.05923754 8.85756805 6.34765625 8.64453125 C2.90871828 8.69886841 2.90871828 8.69886841 0.55859375 11.01171875 C0.04425781 11.66785156 -0.47007812 12.32398438 -1 13 C-1.66 12.67 -2.32 12.34 -3 12 C-2.484375 11.484375 -1.96875 10.96875 -1.4375 10.4375 C0.56823133 7.03647731 -0.2869816 4.77899754 -1 1 C-0.67 0.67 -0.34 0.34 0 0 Z " fill="#100A13" transform="translate(353,152)"/>
<path d="M0 0 C4.95 0 9.9 0 15 0 C15 5.61 15 11.22 15 17 C10.05 17 5.1 17 0 17 C0 11.39 0 5.78 0 0 Z M2 1 C2 5.62 2 10.24 2 15 C5.96 15 9.92 15 14 15 C14 10.38 14 5.76 14 1 C10.04 1 6.08 1 2 1 Z " fill="#3AA948" transform="translate(19,20)"/>
<path d="M0 0 C0.66 0.99 1.32 1.98 2 3 C0.5968277 6.33434242 -0.96989805 8.05526479 -3.875 10.1875 C-4.55304688 10.69667969 -5.23109375 11.20585938 -5.9296875 11.73046875 C-10.90546733 14.78165449 -15.44551214 13.98746451 -21 13 C-21 12.67 -21 12.34 -21 12 C-20.3709375 11.85304688 -19.741875 11.70609375 -19.09375 11.5546875 C-13.28939765 10.03366746 -9.18926914 8.07743774 -4.59375 4.20703125 C-3 3 -3 3 -1 3 C-0.67 2.01 -0.34 1.02 0 0 Z " fill="#190E20" transform="translate(433,92)"/>
<path d="M0 0 C1.65 0 3.3 0 5 0 C5.03738281 0.77085937 5.07476562 1.54171875 5.11328125 2.3359375 C5.21189453 3.84027344 5.21189453 3.84027344 5.3125 5.375 C5.39951172 6.87160156 5.39951172 6.87160156 5.48828125 8.3984375 C5.65714844 9.25695312 5.82601562 10.11546875 6 11 C6.99 11.66 7.98 12.32 9 13 C8.01 15.97 7.02 18.94 6 22 C3.81351633 17.62703266 3.76637929 14.4791784 3.875 9.75 C3.88402344 9.00492188 3.89304687 8.25984375 3.90234375 7.4921875 C3.92581642 5.66131941 3.96168475 3.83061762 4 2 C3.01 2 2.02 2 1 2 C1 8.27 1 14.54 1 21 C-0.32 20.01 -1.64 19.02 -3 18 C-3 17.34 -3 16.68 -3 16 C-2.34 16 -1.68 16 -1 16 C-1.01160156 15.09636719 -1.02320313 14.19273437 -1.03515625 13.26171875 C-1.04417969 12.08222656 -1.05320313 10.90273437 -1.0625 9.6875 C-1.07410156 8.51574219 -1.08570313 7.34398437 -1.09765625 6.13671875 C-1 3 -1 3 0 0 Z " fill="#CD9FE7" transform="translate(54,144)"/>
<path d="M0 0 C0 3.21378204 -0.3983451 3.87506559 -2 6.5 C-4.61287331 11.50337442 -4.73949168 16.46241111 -4 22 C-3.06048116 24.25754466 -3.06048116 24.25754466 -2 26 C-2.66 26 -3.32 26 -4 26 C-4.33 26.66 -4.66 27.32 -5 28 C-8.77425173 22.33862241 -8.66658458 16.64758323 -8 10 C-6.37127955 5.19956079 -4.11943199 2.89473599 0 0 Z " fill="#0C0710" transform="translate(300,154)"/>
<path d="M0 0 C4.95 0 9.9 0 15 0 C15 4.95 15 9.9 15 15 C10.05 15 5.1 15 0 15 C0 10.05 0 5.1 0 0 Z M2 2 C2 5.96 2 9.92 2 14 C5.96 14 9.92 14 14 14 C14 10.04 14 6.08 14 2 C10.04 2 6.08 2 2 2 Z " fill="#48AE4B" transform="translate(73,39)"/>
<path d="M0 0 C-0.58203125 1.890625 -0.58203125 1.890625 -2 4 C-5.01171875 5.046875 -5.01171875 5.046875 -8.6875 5.75 C-9.88761719 5.99234375 -11.08773437 6.2346875 -12.32421875 6.484375 C-15.93780075 6.99127492 -19.35661192 7.09354013 -23 7 C-23 5.68 -23 4.36 -23 3 C-22.13117187 2.95101562 -21.26234375 2.90203125 -20.3671875 2.8515625 C-19.21476562 2.77679688 -18.06234375 2.70203125 -16.875 2.625 C-15.16957031 2.52058594 -15.16957031 2.52058594 -13.4296875 2.4140625 C-8.68418652 1.84114325 -4.81228661 0 0 0 Z " fill="#06000B" transform="translate(86,168)"/>
<path d="M0 0 C3.94812051 1.438967 7.31165619 3.34582249 10.875 5.5625 C15.41214721 8.26238266 18.72920423 9.88020919 24 10 C24 10.66 24 11.32 24 12 C22.02 12 20.04 12 18 12 C18 12.66 18 13.32 18 14 C14.08666411 13.42024654 11.99203984 11.49336653 9 9 C7.01231606 7.64837492 5.0133653 6.31306433 3 5 C2.01 4.34 1.02 3.68 0 3 C0 2.01 0 1.02 0 0 Z " fill="#1C0C28" transform="translate(31,161)"/>
<path d="M0 0 C0.99 0 1.98 0 3 0 C3 4.95 3 9.9 3 15 C7.62 15 12.24 15 17 15 C17 15.33 17 15.66 17 16 C5.78 16 -5.44 16 -17 16 C-17 15.67 -17 15.34 -17 15 C-11.39 15 -5.78 15 0 15 C0 10.05 0 5.1 0 0 Z " fill="#A2EB71" transform="translate(17,56)"/>
<path d="M0 0 C0.66 1.32 1.32 2.64 2 4 C2.66 4 3.32 4 4 4 C4 10.27 4 16.54 4 23 C2.68 23 1.36 23 0 23 C-0.19588601 19.3545658 -0.38030536 15.7086421 -0.5625 12.0625 C-0.61857422 11.02158203 -0.67464844 9.98066406 -0.73242188 8.90820312 C-0.78076172 7.91884766 -0.82910156 6.92949219 -0.87890625 5.91015625 C-0.9260376 4.99371338 -0.97316895 4.07727051 -1.02172852 3.13305664 C-1 1 -1 1 0 0 Z " fill="#130518" transform="translate(57,180)"/>
<path d="M0 0 C0.99 0 1.98 0 3 0 C1.58846902 5.43731756 -0.9802248 9.02583935 -4.4375 13.3125 C-4.92798828 13.94478516 -5.41847656 14.57707031 -5.92382812 15.22851562 C-9.61020636 19.87006879 -9.61020636 19.87006879 -13 21 C-12.42402935 16.85896967 -10.14816119 14.30014859 -7.625 11.0625 C-5.35035934 8.13214045 -3.20266496 5.36430262 -1.3984375 2.12109375 C-0.93695313 1.42113281 -0.47546875 0.72117188 0 0 Z " fill="#0D1118" transform="translate(254,192)"/>
<path d="M0 0 C13.3906763 7.51871307 13.3906763 7.51871307 18 12 C18 12.66 18 13.32 18 14 C13.76175918 13.43079887 10.99097375 11.96762386 7.4375 9.625 C6.04337891 8.71621094 6.04337891 8.71621094 4.62109375 7.7890625 C2.36408995 6.24851445 0.16777973 4.66281457 -2 3 C-1.34 2.67 -0.68 2.34 0 2 C0 1.34 0 0.68 0 0 Z " fill="#160923" transform="translate(66,179)"/>
<path d="M0 0 C1.32 0.66 2.64 1.32 4 2 C2.35712527 3.69587069 0.69074309 5.35230824 -1 7 C-1.70125 7.69738281 -2.4025 8.39476562 -3.125 9.11328125 C-4.2696875 10.20189453 -4.2696875 10.20189453 -5.4375 11.3125 C-6.15808594 12.00988281 -6.87867188 12.70726562 -7.62109375 13.42578125 C-10.59320636 15.39254871 -12.50574888 15.29663427 -16 15 C-11.88953193 10.75251633 -7.51621775 6.82809989 -3.109375 2.890625 C-1.52811291 1.4733801 -1.52811291 1.4733801 0 0 Z " fill="#16121D" transform="translate(227,225)"/>
<path d="M0 0 C0.33 0 0.66 0 1 0 C1.12117188 0.78503906 1.24234375 1.57007812 1.3671875 2.37890625 C2.27186083 8.05051213 3.2579299 13.52492254 5 19 C4.01 19.99 3.02 20.98 2 22 C-0.61407872 16.63809899 -2.49228528 11.96564796 -3 6 C-2.34 6 -1.68 6 -1 6 C-0.67 4.02 -0.34 2.04 0 0 Z " fill="#1B0D23" transform="translate(376,73)"/>
<path d="M0 0 C4 0 4 0 7 1 C6.34 1 5.68 1 5 1 C4.73703125 1.71671875 4.4740625 2.4334375 4.203125 3.171875 C2.95642997 6.10241786 1.51202455 8.59902612 -0.25 11.25 C-1.09304688 12.55710938 -1.09304688 12.55710938 -1.953125 13.890625 C-4.53762655 16.55404263 -6.3671995 16.73318414 -10 17 C-9.61328125 16.49210937 -9.2265625 15.98421875 -8.828125 15.4609375 C-2.71002286 8.38429546 -2.71002286 8.38429546 0 0 Z " fill="#1C1623" transform="translate(401,126)"/>
<path d="M0 0 C0.33 0.99 0.66 1.98 1 3 C-5.27 3.99 -11.54 4.98 -18 6 C-18.33 4.68 -18.66 3.36 -19 2 C-12.6221448 0.82706111 -6.49678438 -0.29530838 0 0 Z " fill="#0C061A" transform="translate(47,175)"/>
<path d="M0 0 C4.62 0 9.24 0 14 0 C14 4.62 14 9.24 14 14 C10.37 14 6.74 14 3 14 C3 13.67 3 13.34 3 13 C6.3 13 9.6 13 13 13 C12.67 9.7 12.34 6.4 12 3 C8.7 3 5.4 3 2 3 C2 6.63 2 10.26 2 14 C1.34 14 0.68 14 0 14 C0 9.38 0 4.76 0 0 Z " fill="#25A242" transform="translate(37,57)"/>
<path d="M0 0 C0.66 0.33 1.32 0.66 2 1 C0.50800436 4.56153799 -1.51442696 6.68403747 -4.375 9.25 C-5.14585937 9.95640625 -5.91671875 10.6628125 -6.7109375 11.390625 C-9 13 -9 13 -13 13 C-11.44533803 8.91667098 -8.74912156 6.91791007 -5.375 4.25 C-4.37210937 3.45078125 -3.36921875 2.6515625 -2.3359375 1.828125 C-1.17964844 0.92320312 -1.17964844 0.92320312 0 0 Z " fill="#131217" transform="translate(288,198)"/>
<path d="M0 0 C3.9375 0.625 3.9375 0.625 6.4375 2.1875 C8.44228781 5.44528019 8.22612859 7.87282833 7.9375 11.625 C7.6075 11.625 7.2775 11.625 6.9375 11.625 C6.6075 9.975 6.2775 8.325 5.9375 6.625 C5.6075 8.275 5.2775 9.925 4.9375 11.625 C4.6075 11.625 4.2775 11.625 3.9375 11.625 C3.6075 9.315 3.2775 7.005 2.9375 4.625 C1.98875 4.625 1.04 4.625 0.0625 4.625 C-1.64583333 4.625 -3.35416667 4.625 -5.0625 4.625 C-6.41132408 5.25974075 -7.7471659 5.92348848 -9.0625 6.625 C-4.77678571 0.19642857 -4.77678571 0.19642857 0 0 Z " fill="#17121A" transform="translate(304.0625,151.375)"/>
<path d="M0 0 C1.9375 0.375 1.9375 0.375 4 1 C4.33 1.66 4.66 2.32 5 3 C7.38564077 2.42415568 9.66682784 1.77772405 12 1 C11.67 2.98 11.34 4.96 11 7 C8.3125 7.75 8.3125 7.75 5 8 C2.125 6.3125 2.125 6.3125 0 4 C0 2.68 0 1.36 0 0 Z " fill="#1A0B1F" transform="translate(401,77)"/>
<path d="M0 0 C0.99 0.495 0.99 0.495 2 1 C2 5.62 2 10.24 2 15 C5.96 15 9.92 15 14 15 C14 15.66 14 16.32 14 17 C9.38 17 4.76 17 0 17 C0 11.39 0 5.78 0 0 Z " fill="#3DAB43" transform="translate(73,20)"/>
<path d="M0 0 C0.33 0 0.66 0 1 0 C1.28194828 3.19541383 1.09653156 4.81952795 -0.4375 7.6875 C-2.18891206 11.40049357 -2.76188307 14.84530581 -3.1875 18.875 C-3.26935547 19.56335938 -3.35121094 20.25171875 -3.43554688 20.9609375 C-3.63370738 22.63947357 -3.81827787 24.31960481 -4 26 C-4.33 26 -4.66 26 -5 26 C-5 22.7 -5 19.4 -5 16 C-5.66 16 -6.32 16 -7 16 C-5.43082402 9.98482543 -3.88104443 4.91598962 0 0 Z " fill="#1A2327" transform="translate(239,184)"/>
<path d="M0 0 C4.95 0 9.9 0 15 0 C15 0.33 15 0.66 15 1 C9.06 1.495 9.06 1.495 3 2 C3.33 2.66 3.66 3.32 4 4 C7.04581269 4.46954261 7.04581269 4.46954261 10.5625 4.625 C11.76003906 4.69976562 12.95757812 4.77453125 14.19140625 4.8515625 C15.11824219 4.90054688 16.04507812 4.94953125 17 5 C14.33333333 7.66666667 11.66666667 10.33333333 9 13 C8.67 11.68 8.34 10.36 8 9 C8.99 9 9.98 9 11 9 C11 8.34 11 7.68 11 7 C7.7 6.67 4.4 6.34 1 6 C0.67 4.02 0.34 2.04 0 0 Z " fill="#F1F376" transform="translate(268,49)"/>
<path d="M0 0 C0.99 0.33 1.98 0.66 3 1 C2.34 1 1.68 1 1 1 C1 1.66 1 2.32 1 3 C5.29 3 9.58 3 14 3 C14 3.99 14 4.98 14 6 C11.54137599 6.05383848 9.0839245 6.09359038 6.625 6.125 C5.57699219 6.15013672 5.57699219 6.15013672 4.5078125 6.17578125 C2.67102514 6.19344267 0.83398037 6.10303261 -1 6 C-1.66 5.34 -2.32 4.68 -3 4 C-2.34 4 -1.68 4 -1 4 C-0.67 2.68 -0.34 1.36 0 0 Z " fill="#231E0A" transform="translate(298,47)"/>
<path d="M0 0 C-2.37446198 4.74892396 -2.37446198 4.74892396 -4.703125 5.68359375 C-7.7379731 6.10165956 -10.6874667 6.09312533 -13.75 6.0625 C-14.92046875 6.05347656 -16.0909375 6.04445312 -17.296875 6.03515625 C-18.18890625 6.02355469 -19.0809375 6.01195312 -20 6 C-20 5.67 -20 5.34 -20 5 C-16.7 5 -13.4 5 -10 5 C-10 4.34 -10 3.68 -10 3 C-12.97 3 -15.94 3 -19 3 C-19 2.67 -19 2.34 -19 2 C-17.64455078 1.90912109 -17.64455078 1.90912109 -16.26171875 1.81640625 C-14.49248047 1.69072266 -14.49248047 1.69072266 -12.6875 1.5625 C-11.51574219 1.48128906 -10.34398437 1.40007812 -9.13671875 1.31640625 C-5.90126834 0.99004077 -3.25596901 0 0 0 Z " fill="#3E3642" transform="translate(263,215)"/>
<path d="M0 0 C1.98 1.65 3.96 3.3 6 5 C5.01 6.485 5.01 6.485 4 8 C3.34 8 2.68 8 2 8 C2 8.66 2 9.32 2 10 C1.34 10 0.68 10 0 10 C0 12.31 0 14.62 0 17 C-0.66 17.33 -1.32 17.66 -2 18 C-1.03644647 5.33029613 -1.03644647 5.33029613 0 0 Z " fill="#E5E774" transform="translate(293,54)"/>
<path d="M0 0 C2.530472 0.33739627 3.6818563 0.6061078 5.3125 2.625 C6.28684349 5.99091387 5.63882445 8.57357794 5 12 C4.814375 13.299375 4.62875 14.59875 4.4375 15.9375 C4.293125 16.948125 4.14875 17.95875 4 19 C3.67 19 3.34 19 3 19 C2.86722656 18.13117188 2.73445313 17.26234375 2.59765625 16.3671875 C2.42105469 15.21476562 2.24445313 14.06234375 2.0625 12.875 C1.88847656 11.73804687 1.71445312 10.60109375 1.53515625 9.4296875 C1.04410734 6.28267331 0.52981281 3.14069217 0 0 Z " fill="#160B1E" transform="translate(439,58)"/>
<path d="M0 0 C0.33 1.32 0.66 2.64 1 4 C4.63 4 8.26 4 12 4 C11.67 4.99 11.34 5.98 11 7 C0.11971831 7.57042254 0.11971831 7.57042254 -4 4 C-4 3.34 -4 2.68 -4 2 C-2.68 1.34 -1.36 0.68 0 0 Z " fill="#040209" transform="translate(302,180)"/>
<path d="M0 0 C0.66 0 1.32 0 2 0 C2.02708567 1.60407328 2.04643483 3.2082785 2.0625 4.8125 C2.07410156 5.70582031 2.08570313 6.59914063 2.09765625 7.51953125 C2 10 2 10 1 13 C0.01 13 -0.98 13 -2 13 C-3.26237731 10.47524538 -3.09856404 8.68799534 -3.0625 5.875 C-3.05347656 4.96492188 -3.04445313 4.05484375 -3.03515625 3.1171875 C-3.02355469 2.41851562 -3.01195312 1.71984375 -3 1 C-2.34 1.66 -1.68 2.32 -1 3 C-0.67 2.01 -0.34 1.02 0 0 Z " fill="#32223A" transform="translate(444,67)"/>
<path d="M0 0 C2.3125 0.1875 2.3125 0.1875 4 1 C4 1.66 4 2.32 4 3 C3.34 3 2.68 3 2 3 C1.67 3.66 1.34 4.32 1 5 C0.34 5 -0.32 5 -1 5 C-3.36214538 7.64846603 -4.87172132 9.61516396 -6 13 C-7.32 12.01 -8.64 11.02 -10 10 C-8.33333333 8.33333333 -6.66666667 6.66666667 -5 5 C-4.154375 4.05125 -3.30875 3.1025 -2.4375 2.125 C-1.633125 1.42375 -0.82875 0.7225 0 0 Z " fill="#D7D0DE" transform="translate(237,219)"/>
<path d="M0 0 C-1.39332574 3.36720387 -2.9789286 4.9859524 -6 7 C-6 5.68 -6 4.36 -6 3 C-9.96 3 -13.92 3 -18 3 C-18 2.67 -18 2.34 -18 2 C-16.12612523 1.6603981 -14.25083303 1.32861309 -12.375 1 C-11.33085938 0.814375 -10.28671875 0.62875 -9.2109375 0.4375 C-6.09425135 0.01284203 -3.14069188 -0.07545206 0 0 Z " fill="#AF8BC9" transform="translate(54,177)"/>
<path d="M0 0 C3.39417765 3.12621626 5.6062718 5.56541027 7 10 C2.12637153 9.54663921 -0.39042389 8.2910841 -4 5 C-2.35 4.67 -0.7 4.34 1 4 C0.67 2.68 0.34 1.36 0 0 Z " fill="#C293DB" transform="translate(47,162)"/>
<path d="M0 0 C1.32 1.32 2.64 2.64 4 4 C-0.29 4 -4.58 4 -9 4 C-9.33 3.01 -9.66 2.02 -10 1 C-6.87057535 -0.56471233 -3.38917777 -0.69701958 0 0 Z " fill="#41431D" transform="translate(281,50)"/>
<path d="M0 0 C0.33 0 0.66 0 1 0 C1 5.94 1 11.88 1 18 C0.34 18 -0.32 18 -1 18 C-1 15.36 -1 12.72 -1 10 C-1.66 10 -2.32 10 -3 10 C-2.39009109 6.44219804 -1.4216319 3.3171411 0 0 Z " fill="#C498D3" transform="translate(56,182)"/>
<path d="M0 0 C2.03529587 2.03529587 2.6384272 3.23417382 3.625 5.875 C3.88539062 6.55304688 4.14578125 7.23109375 4.4140625 7.9296875 C5 10 5 10 5 14 C2 13 2 13 0.25 10.375 C-1.21232802 6.42671434 -0.89388075 4.06309431 0 0 Z " fill="#15091E" transform="translate(66,187)"/>
<path d="M0 0 C3.77727089 1.81309003 7.37269822 3.9073259 11 6 C10.67 6.66 10.34 7.32 10 8 C8.35 7.67 6.7 7.34 5 7 C4.67 8.32 4.34 9.64 4 11 C3.32880451 9.5437455 2.66318193 8.08492133 2 6.625 C1.62875 5.81289062 1.2575 5.00078125 0.875 4.1640625 C0 2 0 2 0 0 Z " fill="#C79BE7" transform="translate(65,183)"/>
<path d="M0 0 C3.375 0.25 3.375 0.25 7 1 C8.94241961 3.5335908 9 4.78187214 9 8 C7.68 8 6.36 8 5 8 C5 6.68 5 5.36 5 4 C3.02 3.34 1.04 2.68 -1 2 C-0.67 1.34 -0.34 0.68 0 0 Z " fill="#160A1E" transform="translate(421,41)"/>
<path d="M0 0 C-0.53851968 5.27749285 -1.77343836 9.25645564 -4 14 C-4.66 14 -5.32 14 -6 14 C-5.38997821 0 -5.38997821 0 0 0 Z " fill="#CFCAD6" transform="translate(361,140)"/>
<path d="M0 0 C1.54855263 0.27636411 3.09375551 0.57738519 4.625 0.9375 C4.625 1.2675 4.625 1.5975 4.625 1.9375 C4.03332031 2.11925781 3.44164062 2.30101562 2.83203125 2.48828125 C-1.63366357 3.90885301 -5.35476113 5.50099159 -9.375 7.9375 C-10.035 7.6075 -10.695 7.2775 -11.375 6.9375 C-8.28661297 1.90317806 -6.17810663 -0.68450613 0 0 Z " fill="#D9D1E1" transform="translate(361.375,160.0625)"/>
<path d="M0 0 C0.66 0 1.32 0 2 0 C2.06058594 0.88042969 2.12117188 1.76085937 2.18359375 2.66796875 C2.26738281 3.82941406 2.35117187 4.99085938 2.4375 6.1875 C2.55931641 7.91033203 2.55931641 7.91033203 2.68359375 9.66796875 C2.95403812 12.51598171 3.37521747 15.21210482 4 18 C2.68 17.67 1.36 17.34 0 17 C0 11.39 0 5.78 0 0 Z " fill="#0A000D" transform="translate(56,149)"/>
<path d="M0 0 C2.78633115 4.17949673 4 6.93375326 4 12 C2.68 11.67 1.36 11.34 0 11 C0 12.98 0 14.96 0 17 C-0.33 17 -0.66 17 -1 17 C-0.67 11.39 -0.34 5.78 0 0 Z " fill="#BC92D3" transform="translate(61,183)"/>
<path d="M0 0 C0.33 0 0.66 0 1 0 C1 1.65 1 3.3 1 5 C1.66 5.33 2.32 5.66 3 6 C1.68 8.97 0.36 11.94 -1 15 C-1.99 14.34 -2.98 13.68 -4 13 C-3.71125 12.154375 -3.4225 11.30875 -3.125 10.4375 C-1.99227296 6.97638959 -0.98175684 3.50627443 0 0 Z " fill="#221D26" transform="translate(361,140)"/>
<path d="M0 0 C0 3 0 3 -2 6 C-2 6.99 -2 7.98 -2 9 C-4.5 11.1875 -4.5 11.1875 -7 13 C-7.66 12.01 -8.32 11.02 -9 10 C-6.03 6.7 -3.06 3.4 0 0 Z " fill="#261D2F" transform="translate(353,158)"/>
<path d="M0 0 C0.33 0 0.66 0 1 0 C1.28875 0.969375 1.5775 1.93875 1.875 2.9375 C2.64214682 6.10664203 2.64214682 6.10664203 5 7 C4.01 9.97 3.02 12.94 2 16 C-0.05279359 11.89441282 -0.2216942 10.19793315 -0.125 5.75 C-0.10695312 4.67234375 -0.08890625 3.5946875 -0.0703125 2.484375 C-0.04710937 1.66453125 -0.02390625 0.8446875 0 0 Z " fill="#BD92D6" transform="translate(58,150)"/>
<path d="M0 0 C1.98 0.495 1.98 0.495 4 1 C3.52433594 1.81210938 3.52433594 1.81210938 3.0390625 2.640625 C1.81692026 5.4157149 1.59056564 7.73208098 1.375 10.75 C1.30023438 11.73484375 1.22546875 12.7196875 1.1484375 13.734375 C1.09945313 14.48203125 1.05046875 15.2296875 1 16 C0.34 16 -0.32 16 -1 16 C-1.02725341 14.2709226 -1.04650987 12.54171824 -1.0625 10.8125 C-1.07410156 9.84957031 -1.08570313 8.88664062 -1.09765625 7.89453125 C-1.00486622 5.14423487 -0.62111685 2.67520409 0 0 Z " fill="#B990D3" transform="translate(372,64)"/>
<path d="M0 0 C-1.59092052 4.13639336 -4.60474918 7.23213248 -8 10 C-8.66 10 -9.32 10 -10 10 C-9.06742166 5.89665529 -8.35870974 4.28397854 -5 1.625 C-2 0 -2 0 0 0 Z " fill="#0F0911" transform="translate(396,141)"/>
<path d="M0 0 C4.41309542 3.15221101 7.00793014 6.55463907 10 11 C9.67 11.66 9.34 12.32 9 13 C5.7 9.7 2.4 6.4 -1 3 C-0.67 2.01 -0.34 1.02 0 0 Z " fill="#3F3407" transform="translate(300,58)"/>
<path d="M0 0 C-1.35800471 2.96530497 -2.92428263 5.29131271 -5.0625 7.75 C-5.85333984 8.67039063 -5.85333984 8.67039063 -6.66015625 9.609375 C-7.10230469 10.06828125 -7.54445312 10.5271875 -8 11 C-8.33 11 -8.66 11 -9 11 C-9.4375 8.875 -9.4375 8.875 -9 6 C-3.64637002 0 -3.64637002 0 0 0 Z " fill="#121B1F" transform="translate(249,176)"/>
<path d="M0 0 C0.66 0.66 1.32 1.32 2 2 C2.99 2 3.98 2 5 2 C3.5140084 6.59306496 1.14985318 9.43569245 -2 13 C-2.33 12.34 -2.66 11.68 -3 11 C-2.34938905 9.32700041 -1.67966676 7.66140763 -1 6 C-0.62406934 4.0075675 -0.28020455 2.0081326 0 0 Z " fill="#B590C6" transform="translate(67,152)"/>
<path d="M0 0 C-0.11389875 1.79240663 -0.24147687 3.58394835 -0.375 5.375 C-0.47941406 6.87160156 -0.47941406 6.87160156 -0.5859375 8.3984375 C-1 11 -1 11 -3 13 C-4.58651723 9.82696553 -4.41696583 6.45586933 -4 3 C-1.84375 0 -1.84375 0 0 0 Z " fill="#040009" transform="translate(377,68)"/>
<path d="M0 0 C2.31 0 4.62 0 7 0 C6.01 0.66 5.02 1.32 4 2 C5.11854586 5.72614153 5.11854586 5.72614153 8 8 C7.67 8.99 7.34 9.98 7 11 C4.35247996 8.42215154 2.05567935 6.08351902 0 3 C0 2.01 0 1.02 0 0 Z " fill="#D9DB71" transform="translate(299,53)"/>
<path d="M0 0 C0.78761719 0.17144531 1.57523438 0.34289062 2.38671875 0.51953125 C4.3125 1.1875 4.3125 1.1875 5.3125 3.1875 C3.3325 3.1875 1.3525 3.1875 -0.6875 3.1875 C-0.6875 3.8475 -0.6875 4.5075 -0.6875 5.1875 C-4.48338866 4.64523019 -6.15961993 2.98622437 -8.6875 0.1875 C-5.47293644 -0.84969328 -3.27824417 -0.75318337 0 0 Z " fill="#23192B" transform="translate(49.6875,169.8125)"/>
<path d="M0 0 C1.62463842 -0.05395478 3.24978541 -0.09277195 4.875 -0.125 C5.77992188 -0.14820313 6.68484375 -0.17140625 7.6171875 -0.1953125 C10 0 10 0 12 2 C8.98509443 3.00496852 6.95818308 3.10335303 3.8125 3.0625 C2.46091797 3.04896484 2.46091797 3.04896484 1.08203125 3.03515625 C0.39496094 3.02355469 -0.29210937 3.01195312 -1 3 C-0.67 2.01 -0.34 1.02 0 0 Z " fill="#080208" transform="translate(361,158)"/>
<path d="M0 0 C-1.1858237 3.37503669 -2.27573689 5.64722731 -5 8 C-5.268125 7.195625 -5.53625 6.39125 -5.8125 5.5625 C-6.204375 4.716875 -6.59625 3.87125 -7 3 C-7.99 2.67 -8.98 2.34 -10 2 C-3.375 0 -3.375 0 0 0 Z " fill="#CFC7D7" transform="translate(402,127)"/>
<path d="M0 0 C4.62 0.66 9.24 1.32 14 2 C14 2.66 14 3.32 14 4 C12.04174127 4.02694851 10.08337774 4.04637218 8.125 4.0625 C7.03445312 4.07410156 5.94390625 4.08570313 4.8203125 4.09765625 C2 4 2 4 0 3 C0 2.01 0 1.02 0 0 Z " fill="#050206" transform="translate(239,216)"/>
<path d="M0 0 C1.32 0.66 2.64 1.32 4 2 C2.68 4.64 1.36 7.28 0 10 C-1.32 9.34 -2.64 8.68 -4 8 C-2.68 5.36 -1.36 2.72 0 0 Z " fill="#221D2A" transform="translate(304,172)"/>
<path d="M0 0 C0.33 0 0.66 0 1 0 C1.66 2.97 2.32 5.94 3 9 C4.65 9 6.3 9 8 9 C3.375 13 3.375 13 0 13 C0 8.71 0 4.42 0 0 Z " fill="#D8DA71" transform="translate(293,35)"/>
<path d="M0 0 C1.32 0.33 2.64 0.66 4 1 C3.01 1.495 3.01 1.495 2 2 C2.66 2.66 3.32 3.32 4 4 C4.33 4.66 4.66 5.32 5 6 C5.66 6.33 6.32 6.66 7 7 C6.01 7.33 5.02 7.66 4 8 C3.34 8.66 2.68 9.32 2 10 C-0.4294516 6.3558226 -0.16179575 4.28758728 0 0 Z " fill="#221E27" transform="translate(296,180)"/>
<path d="M0 0 C0.66 0 1.32 0 2 0 C1.38479725 3.99881788 -0.60268669 6.80358226 -3 10 C-3.66 10 -4.32 10 -5 10 C-4.49890042 5.61537866 -3.01704885 3.1999003 0 0 Z " fill="#1A081F" transform="translate(74,152)"/>
<path d="M0 0 C1.65 0 3.3 0 5 0 C5 0.33 5 0.66 5 1 C7.97 1.33 10.94 1.66 14 2 C14 2.33 14 2.66 14 3 C9.38 3.33 4.76 3.66 0 4 C0 2.68 0 1.36 0 0 Z " fill="#2A1932" transform="translate(63,171)"/>
<path d="M0 0 C2.31 0 4.62 0 7 0 C5.35 1.98 3.7 3.96 2 6 C1.01 5.34 0.02 4.68 -1 4 C-0.67 2.68 -0.34 1.36 0 0 Z " fill="#DDDCE8" transform="translate(236,208)"/>
<path d="M0 0 C2.97 0 5.94 0 9 0 C8.67 0.66 8.34 1.32 8 2 C6.68 2 5.36 2 4 2 C4 3.98 4 5.96 4 8 C1.67210485 5.16604069 0.92622107 3.70488428 0 0 Z " fill="#EDF7F7" transform="translate(228,154)"/>
<path d="M0 0 C0.33 0 0.66 0 1 0 C1.31683168 9.5049505 1.31683168 9.5049505 -2.625 13.75 C-3.305625 14.36875 -3.305625 14.36875 -4 15 C-4.66 14.67 -5.32 14.34 -6 14 C-5.38125 12.989375 -4.7625 11.97875 -4.125 10.9375 C-2.07056045 7.36772915 -0.97730425 3.990659 0 0 Z " fill="#C196DF" transform="translate(445,77)"/>
<path d="M0 0 C8.57142857 -0.28571429 8.57142857 -0.28571429 12 2 C8.93753253 3.78409802 6.77920727 4.22880021 3.25 4.125 C2.45078125 4.10695313 1.6515625 4.08890625 0.828125 4.0703125 C0.22484375 4.04710937 -0.3784375 4.02390625 -1 4 C0.32 3.34 1.64 2.68 3 2 C2.01 1.34 1.02 0.68 0 0 Z " fill="#251635" transform="translate(412,39)"/>
<path d="M0 0 C0.99 0.33 1.98 0.66 3 1 C1.125 4.875 1.125 4.875 0 6 C-1.99958364 6.04080783 -4.00045254 6.04254356 -6 6 C-4 4 -2 2 0 0 Z " fill="#1D1727" transform="translate(217,234)"/>
<path d="M0 0 C2.475 0.99 2.475 0.99 5 2 C5 2.99 5 3.98 5 5 C4.34 5.66 3.68 6.32 3 7 C0.875 6.625 0.875 6.625 -1 6 C-1 5.01 -1 4.02 -1 3 C-0.01 3.33 0.98 3.66 2 4 C1.34 2.68 0.68 1.36 0 0 Z " fill="#BD90D9" transform="translate(82,189)"/>
<path d="M0 0 C0.99 0 1.98 0 3 0 C3 2.31 3 4.62 3 7 C0 7 0 7 -2 6 C-1.34 4.02 -0.68 2.04 0 0 Z " fill="#CC9BEB" transform="translate(52,192)"/>
<path d="M0 0 C0.33 0.66 0.66 1.32 1 2 C0.67 2.99 0.34 3.98 0 5 C2.31 5.33 4.62 5.66 7 6 C7 6.33 7 6.66 7 7 C3.04 7 -0.92 7 -5 7 C-3.35 4.69 -1.7 2.38 0 0 Z " fill="#B795D1" transform="translate(69,164)"/>
<path d="M0 0 C0.99 0 1.98 0 3 0 C3 0.99 3 1.98 3 3 C2.34 3 1.68 3 1 3 C1 8.94 1 14.88 1 21 C-1 19 -1 19 -1.13525391 17.02880859 C-1.08288574 16.24328613 -1.03051758 15.45776367 -0.9765625 14.6484375 C-0.925 13.79765625 -0.8734375 12.946875 -0.8203125 12.0703125 C-0.75585938 11.18085938 -0.69140625 10.29140625 -0.625 9.375 C-0.56828125 8.4778125 -0.5115625 7.580625 -0.453125 6.65625 C-0.31145247 4.43671376 -0.1600296 2.21827598 0 0 Z " fill="#3B1E49" transform="translate(55,146)"/>
<path d="M0 0 C0.99 0.33 1.98 0.66 3 1 C4.66621616 1.03874921 6.33394172 1.0450286 8 1 C6.35 2.32 4.7 3.64 3 5 C3 4.34 3 3.68 3 3 C-2.28 3 -7.56 3 -13 3 C-13 2.67 -13 2.34 -13 2 C-8.71 2 -4.42 2 0 2 C0 1.34 0 0.68 0 0 Z " fill="#C993E3" transform="translate(388,124)"/>
<path d="M0 0 C0 0.66 0 1.32 0 2 C-3.7615584 5.64757179 -7.03533083 6.83184255 -12 8 C-10.77974937 4.3392481 -9.873509 4.07660559 -6.5625 2.3125 C-5.75941406 1.87550781 -4.95632813 1.43851563 -4.12890625 0.98828125 C-2 0 -2 0 0 0 Z " fill="#3A3307" transform="translate(308,41)"/>
<path d="M0 0 C-0.99 0.33 -1.98 0.66 -3 1 C-2.67 1.66 -2.34 2.32 -2 3 C-4.31 3.33 -6.62 3.66 -9 4 C-9.33 2.68 -9.66 1.36 -10 0 C-6.33694766 -0.74926071 -3.57644848 -1.2380014 0 0 Z " fill="#190C26" transform="translate(38,177)"/>
<path d="M0 0 C2.12508244 3.18762365 2.5020163 5.26512223 3 9 C2.01 9 1.02 9 0 9 C-1.4606285 6.35261084 -2 5.10551666 -2 2 C-1.34 2 -0.68 2 0 2 C0 1.34 0 0.68 0 0 Z " fill="#281F2C" transform="translate(411,126)"/>
<path d="M0 0 C0.66 0.33 1.32 0.66 2 1 C1.01 2.32 0.02 3.64 -1 5 C0.32 5.66 1.64 6.32 3 7 C-0.3 7 -3.6 7 -7 7 C-7 6.34 -7 5.68 -7 5 C-5.03277992 3.61876037 -3.03131672 2.28511874 -1 1 C-0.67 0.67 -0.34 0.34 0 0 Z " fill="#B6B656" transform="translate(306,43)"/>
<path d="M0 0 C0.66 0 1.32 0 2 0 C1.46884894 4.51478398 -0.36620292 7.34666857 -3 11 C-3.99 10.67 -4.98 10.34 -6 10 C-5.65066406 9.52949219 -5.30132812 9.05898437 -4.94140625 8.57421875 C-4.48636719 7.95160156 -4.03132813 7.32898438 -3.5625 6.6875 C-2.88380859 5.76517578 -2.88380859 5.76517578 -2.19140625 4.82421875 C-0.82663692 2.90322899 -0.82663692 2.90322899 0 0 Z " fill="#CA98E2" transform="translate(76,152)"/>
<path d="M0 0 C0 0.33 0 0.66 0 1 C-5.27913453 3.08386889 -10.39538469 3.57910004 -16 4 C-10.58217165 -0.17530987 -6.70651996 -0.11177533 0 0 Z " fill="#C597DC" transform="translate(415,44)"/>
<path d="M0 0 C0.66 1.32 1.32 2.64 2 4 C2.66 4 3.32 4 4 4 C4 6.64 4 9.28 4 12 C3.67 12 3.34 12 3 12 C3 10.02 3 8.04 3 6 C2.34 6 1.68 6 1 6 C0.67 7.32 0.34 8.64 0 10 C-0.19412181 8.52168779 -0.38012131 7.04230684 -0.5625 5.5625 C-0.66691406 4.73878906 -0.77132812 3.91507813 -0.87890625 3.06640625 C-0.91886719 2.38449219 -0.95882812 1.70257813 -1 1 C-0.67 0.67 -0.34 0.34 0 0 Z " fill="#462D51" transform="translate(57,180)"/>
<path d="M0 0 C0.33 0.66 0.66 1.32 1 2 C1.66 2 2.32 2 3 2 C2.34 5.96 1.68 9.92 1 14 C0.67 14 0.34 14 0 14 C0 9.38 0 4.76 0 0 Z " fill="#4A4109" transform="translate(289,62)"/>
<path d="M0 0 C0.66 0 1.32 0 2 0 C2.125 2.375 2.125 2.375 2 5 C1.34 5.66 0.68 6.32 0 7 C-0.99 7 -1.98 7 -3 7 C-2.25 2.25 -2.25 2.25 0 0 Z " fill="#090311" transform="translate(382,55)"/>
<path d="M0 0 C0.33 0 0.66 0 1 0 C1 5.28 1 10.56 1 16 C0.67 16 0.34 16 0 16 C0 12.7 0 9.4 0 6 C-0.66 6 -1.32 6 -2 6 C-1.34 4.02 -0.68 2.04 0 0 Z " fill="#33383D" transform="translate(234,194)"/>
<path d="M0 0 C0.33 0 0.66 0 1 0 C1 2.31 1 4.62 1 7 C1.66 7 2.32 7 3 7 C2.67 8.65 2.34 10.3 2 12 C0.68 11.67 -0.64 11.34 -2 11 C-1.67 10.34 -1.34 9.68 -1 9 C-0.77532169 7.46331135 -0.59203195 5.92031946 -0.4375 4.375 C-0.35371094 3.55773437 -0.26992187 2.74046875 -0.18359375 1.8984375 C-0.12300781 1.27195313 -0.06242188 0.64546875 0 0 Z " fill="#2F353B" transform="translate(256,180)"/>
<path d="M0 0 C0.33 0.66 0.66 1.32 1 2 C-0.73397418 5.65047197 -2.19333016 7.55609075 -6 9 C-4.83857315 4.64464931 -3.92300495 2.35380297 0 0 Z " fill="#D7CFDE" transform="translate(302,155)"/>
<path d="M0 0 C0.66 1.32 1.32 2.64 2 4 C-4.625 5.25 -4.625 5.25 -8 3 C-5.36 2.01 -2.72 1.02 0 0 Z " fill="#231D24" transform="translate(376,154)"/>
<path d="M0 0 C1.5 1.0625 1.5 1.0625 3 3 C3.1875 6.6875 3.1875 6.6875 3 10 C2.67 10 2.34 10 2 10 C1.67 8.35 1.34 6.7 1 5 C0.67 6.65 0.34 8.3 0 10 C-0.33 10 -0.66 10 -1 10 C-1.33 7.36 -1.66 4.72 -2 2 C-1.34 2 -0.68 2 0 2 C0 1.34 0 0.68 0 0 Z " fill="#423A48" transform="translate(309,153)"/>
<path d="M0 0 C0.33 1.65 0.66 3.3 1 5 C0.484375 4.484375 -0.03125 3.96875 -0.5625 3.4375 C-3.9710271 1.42734299 -6.23106857 2.20272604 -10 3 C-4.375 -1.3125 -4.375 -1.3125 0 0 Z " fill="#261433" transform="translate(410,121)"/>
<path d="M0 0 C1.65 0 3.3 0 5 0 C4.67 1.65 4.34 3.3 4 5 C2.68 4.67 1.36 4.34 0 4 C0 2.68 0 1.36 0 0 Z " fill="#190B26" transform="translate(400,65)"/>
<path d="M0 0 C2.64 0 5.28 0 8 0 C7.67 1.32 7.34 2.64 7 4 C3.73045798 3.43628586 2.17424117 2.50037734 0 0 Z " fill="#BF97D3" transform="translate(61,175)"/>
<path d="M0 0 C0.68359375 1.734375 0.68359375 1.734375 1 4 C-0.21484375 6.140625 -0.21484375 6.140625 -1.9375 8.25 C-2.50339844 8.95640625 -3.06929687 9.6628125 -3.65234375 10.390625 C-4.31943359 11.18726563 -4.31943359 11.18726563 -5 12 C-5 8.55639368 -4.20408468 7.25204608 -2.5 4.3125 C-2.0359375 3.50425781 -1.571875 2.69601563 -1.09375 1.86328125 C-0.7328125 1.24839844 -0.371875 0.63351563 0 0 Z " fill="#D8E3E4" transform="translate(198,166)"/>
<path d="M0 0 C2.62187494 1.04874998 3.79371361 1.64931313 5.25 4.125 C5.4975 4.74375 5.745 5.3625 6 6 C5.01 6 4.02 6 3 6 C3 5.34 3 4.68 3 4 C0.03 3.505 0.03 3.505 -3 3 C-2.01 2.01 -1.02 1.02 0 0 Z " fill="#020304" transform="translate(405,122)"/>
<path d="M0 0 C0.33 0.66 0.66 1.32 1 2 C1.66 2 2.32 2 3 2 C2.67 5.96 2.34 9.92 2 14 C1.67 14 1.34 14 1 14 C0.67 9.38 0.34 4.76 0 0 Z " fill="#060009" transform="translate(441,63)"/>
<path d="M0 0 C0 0.66 0 1.32 0 2 C-2.97 3.65 -5.94 5.3 -9 7 C-5.5 0 -5.5 0 0 0 Z " fill="#463C09" transform="translate(287,55)"/>
<path d="M0 0 C0.99 0.33 1.98 0.66 3 1 C1.75 3 1.75 3 0 5 C-1.32 5 -2.64 5 -4 5 C-2.25 1.125 -2.25 1.125 0 0 Z " fill="#0C0815" transform="translate(343,169)"/>
<path d="M0 0 C0 2.64 0 5.28 0 8 C-0.99 8 -1.98 8 -3 8 C-3 6.68 -3 5.36 -3 4 C-3.66 3.67 -4.32 3.34 -5 3 C-1.125 0 -1.125 0 0 0 Z " fill="#D4D75D" transform="translate(290,54)"/>
<path d="M0 0 C0.66 0.33 1.32 0.66 2 1 C0.63016497 4.16115776 0.0109362 4.9927092 -3 7 C-3 3 -3 3 -1.5 1.25 C-1.005 0.8375 -0.51 0.425 0 0 Z " fill="#070208" transform="translate(288,198)"/>
<path d="M0 0 C0.66 0.33 1.32 0.66 2 1 C1.43628586 4.26954202 0.50037734 5.82575883 -2 8 C-2.6875 6.25 -2.6875 6.25 -3 4 C-1.5625 1.75 -1.5625 1.75 0 0 Z " fill="#DAD1E3" transform="translate(297,191)"/>
<path d="M0 0 C1 4 1 4 0 7 C0.33 7.33 0.66 7.66 1 8 C1 8.66 1 9.32 1 10 C-0.32 9.67 -1.64 9.34 -3 9 C-2.01 6.03 -1.02 3.06 0 0 Z " fill="#DAD1E2" transform="translate(362,148)"/>
<path d="M0 0 C6.75 0.75 6.75 0.75 9 3 C6.36 3 3.72 3 1 3 C0.67 2.01 0.34 1.02 0 0 Z " fill="#060106" transform="translate(396,104)"/>
<path d="M0 0 C1.32 0.33 2.64 0.66 4 1 C4 2.98 4 4.96 4 7 C2 5.75 2 5.75 0 4 C0 2.68 0 1.36 0 0 Z " fill="#260E2C" transform="translate(401,77)"/>
<path d="M0 0 C1.32 0 2.64 0 4 0 C3.67 1.32 3.34 2.64 3 4 C1.68 4 0.36 4 -1 4 C-0.67 2.68 -0.34 1.36 0 0 Z " fill="#1E071F" transform="translate(419,69)"/>
<path d="M0 0 C2.02054804 1.64169528 4.02043058 3.30911778 6 5 C6 5.33 6 5.66 6 6 C4.02 6.33 2.04 6.66 0 7 C-0.33 6.34 -0.66 5.68 -1 5 C-0.34 5 0.32 5 1 5 C0.67 3.35 0.34 1.7 0 0 Z " fill="#1F112B" transform="translate(429,44)"/>
<path d="M0 0 C1.32 0.33 2.64 0.66 4 1 C4.33 2.65 4.66 4.3 5 6 C3.68 6 2.36 6 1 6 C0.67 4.02 0.34 2.04 0 0 Z " fill="#0C050A" transform="translate(425,43)"/>
<path d="M0 0 C1.24546405 2.49092811 0.7767578 3.41080733 0 6 C-1.98 6.33 -3.96 6.66 -6 7 C-4.02 4.69 -2.04 2.38 0 0 Z " fill="#D9D2E4" transform="translate(223,233)"/>
<path d="M0 0 C1.65 0.33 3.3 0.66 5 1 C2.6875 3.0625 2.6875 3.0625 0 5 C-0.99 4.67 -1.98 4.34 -3 4 C-2.01 2.68 -1.02 1.36 0 0 Z " fill="#171022" transform="translate(337,173)"/>
<path d="M0 0 C1.32 0.33 2.64 0.66 4 1 C-2.625 4.125 -2.625 4.125 -6 3 C-6 2.34 -6 1.68 -6 1 C-3.03 1.495 -3.03 1.495 0 2 C0 1.34 0 0.68 0 0 Z " fill="#EEF666" transform="translate(301,41)"/>
<path d="M0 0 C-2.50248865 1.66832577 -4.41149187 2.62381674 -7.1875 3.625 C-8.26064453 4.01558594 -8.26064453 4.01558594 -9.35546875 4.4140625 C-9.89816406 4.60742188 -10.44085938 4.80078125 -11 5 C-10.25 3.0625 -10.25 3.0625 -9 1 C-6.05528957 -0.21850087 -3.15451555 -0.08762543 0 0 Z " fill="#C098DD" transform="translate(406,40)"/>
<path d="M0 0 C3.36720387 1.39332574 4.9859524 2.9789286 7 6 C6.01 6.33 5.02 6.66 4 7 C0 2.25 0 2.25 0 0 Z " fill="#4D440D" transform="translate(280,36)"/>
<path d="M0 0 C1.32 0 2.64 0 4 0 C4 1.65 4 3.3 4 5 C2.68 4.67 1.36 4.34 0 4 C0 2.68 0 1.36 0 0 Z " fill="#F4FA61" transform="translate(285,36)"/>
<path d="M0 0 C0.33 0.99 0.66 1.98 1 3 C1.66 3.33 2.32 3.66 3 4 C2.34 5.32 1.68 6.64 1 8 C0.34 8 -0.32 8 -1 8 C-0.67 5.36 -0.34 2.72 0 0 Z " fill="#2B143B" transform="translate(48,192)"/>
<path d="M0 0 C1.32 0.33 2.64 0.66 4 1 C4 2.65 4 4.3 4 6 C3.01 6.495 3.01 6.495 2 7 C1.34 4.69 0.68 2.38 0 0 Z " fill="#0D0612" transform="translate(62,184)"/>
<path d="M0 0 C1.32 0.66 2.64 1.32 4 2 C3.67 3.65 3.34 5.3 3 7 C1.68 5.35 0.36 3.7 -1 2 C-0.67 1.34 -0.34 0.68 0 0 Z " fill="#220D2D" transform="translate(50,162)"/>
<path d="M0 0 C2.50298434 2.93828597 3.46930939 5.17902761 4 9 C2.68 8.67 1.36 8.34 0 8 C0 5.36 0 2.72 0 0 Z " fill="#130C20" transform="translate(56,158)"/>
<path d="M0 0 C1.32 0.33 2.64 0.66 4 1 C4 1.66 4 2.32 4 3 C4.66 3 5.32 3 6 3 C6.33 4.65 6.66 6.3 7 8 C4.35247996 5.42215154 2.05567935 3.08351902 0 0 Z " fill="#B691D3" transform="translate(41,149)"/>
<path d="M0 0 C0.99 0.33 1.98 0.66 3 1 C0.525 4.465 0.525 4.465 -2 8 C-2.66 7.34 -3.32 6.68 -4 6 C-3.525625 5.566875 -3.05125 5.13375 -2.5625 4.6875 C-0.76313043 2.97690387 -0.76313043 2.97690387 0 0 Z " fill="#DAD0E5" transform="translate(392,137)"/>
<path d="M0 0 C1.32 0.99 2.64 1.98 4 3 C3.34 4.32 2.68 5.64 2 7 C1.34 6.34 0.68 5.68 0 5 C-0.66 5 -1.32 5 -2 5 C-1.34 3.35 -0.68 1.7 0 0 Z " fill="#201C0B" transform="translate(290,50)"/>
<path d="M0 0 C0.66 0.33 1.32 0.66 2 1 C2 1.99 2 2.98 2 4 C-0.35438733 5.42944945 -1.48032433 6.08661261 -4.25 5.625 C-4.8275 5.41875 -5.405 5.2125 -6 5 C-5.38125 4.731875 -4.7625 4.46375 -4.125 4.1875 C-1.7004767 3.04443152 -1.7004767 3.04443152 0 0 Z " fill="#BF8FDC" transform="translate(43,193)"/>
<path d="M0 0 C0.66 0 1.32 0 2 0 C2 1.32 2 2.64 2 4 C0.35 4.33 -1.3 4.66 -3 5 C-1.125 1.125 -1.125 1.125 0 0 Z " fill="#0D051C" transform="translate(46,186)"/>
<path d="M0 0 C0.66 0 1.32 0 2 0 C2 1.65 2 3.3 2 5 C0.68 5.33 -0.64 5.66 -2 6 C-1.34 4.02 -0.68 2.04 0 0 Z " fill="#DFD8E6" transform="translate(305,178)"/>
<path d="M0 0 C-0.66 1.32 -1.32 2.64 -2 4 C-2.66 4 -3.32 4 -4 4 C-4 3.34 -4 2.68 -4 2 C-5.32 1.67 -6.64 1.34 -8 1 C-5.10765685 0.17361624 -3.11257569 0 0 0 Z " fill="#361C3F" transform="translate(86,168)"/>
<path d="M0 0 C1.65 0 3.3 0 5 0 C4.34 1.98 3.68 3.96 3 6 C2.34 6 1.68 6 1 6 C0 3 0 3 0 0 Z " fill="#CFDBD9" transform="translate(163,151)"/>
<path d="M0 0 C0 2.31 0 4.62 0 7 C-0.66 7 -1.32 7 -2 7 C-2 5.35 -2 3.7 -2 2 C-2.99 1.67 -3.98 1.34 -5 1 C-2 0 -2 0 0 0 Z " fill="#040109" transform="translate(364,138)"/>
<path d="M0 0 C0.66 0.66 1.32 1.32 2 2 C1 3 1 3 -0.84765625 3.09765625 C-2.8984375 3.06510417 -4.94921875 3.03255208 -7 3 C-7.33 2.34 -7.66 1.68 -8 1 C-6.865625 1.020625 -5.73125 1.04125 -4.5625 1.0625 C-1.18424326 1.41577477 -1.18424326 1.41577477 0 0 Z " fill="#040004" transform="translate(419,104)"/>
<path d="M0 0 C0.66 0 1.32 0 2 0 C2.66 0.99 3.32 1.98 4 3 C4.99 3.66 5.98 4.32 7 5 C5.68 5.33 4.36 5.66 3 6 C1.68 4.35 0.36 2.7 -1 1 C-0.67 0.67 -0.34 0.34 0 0 Z " fill="#AF8DCB" transform="translate(403,75)"/>
<path d="M0 0 C0 0.99 0 1.98 0 3 C-2.64 3 -5.28 3 -8 3 C-5.36657694 0.36657694 -3.69534435 0 0 0 Z " fill="#32320A" transform="translate(312,50)"/>
</svg>
