<svg width="49" height="48" viewBox="0 0 49 48" fill="none" xmlns="http://www.w3.org/2000/svg">
<path fill-rule="evenodd" clip-rule="evenodd" d="M24.89 42.86C27.3667 42.86 29.8192 42.3722 32.1074 41.4244C34.3956 40.4766 36.4747 39.0873 38.226 37.336C39.9774 35.5847 41.3666 33.5056 42.3144 31.2174C43.2622 28.9292 43.75 26.4767 43.75 24C43.75 21.5233 43.2622 19.0708 42.3144 16.7826C41.3666 14.4944 39.9774 12.4153 38.226 10.664C36.4747 8.91265 34.3956 7.52344 32.1074 6.57563C29.8192 5.62783 27.3667 5.14 24.89 5.14C19.888 5.14 15.0909 7.12703 11.554 10.664C8.01705 14.2009 6.03001 18.998 6.03001 24C6.03001 29.002 8.01705 33.7991 11.554 37.336C15.0909 40.873 19.888 42.86 24.89 42.86ZM24.89 46.5C30.8574 46.5 36.5803 44.1295 40.7999 39.9099C45.0195 35.6903 47.39 29.9674 47.39 24C47.39 18.0326 45.0195 12.3097 40.7999 8.0901C36.5803 3.87053 30.8574 1.5 24.89 1.5C18.9226 1.5 13.1997 3.87053 8.98011 8.0901C4.76054 12.3097 2.39001 18.0326 2.39001 24C2.39001 29.9674 4.76054 35.6903 8.98011 39.9099C13.1997 44.1295 18.9226 46.5 24.89 46.5Z" fill="black"/>
<path fill-rule="evenodd" clip-rule="evenodd" d="M14.03 30.36L9.80001 25.27L8.73001 23.99L9.80001 22.71L14.03 17.63H19.24L13.94 23.99L19.24 30.36H14.04H14.03ZM20.36 30.36L25.45 17.63H29.75L24.66 30.36H20.36ZM35.74 30.36H30.53L35.83 23.99L30.53 17.63H35.73L39.97 22.71L41.04 23.99L39.97 25.27L35.74 30.36Z" fill="black"/>
</svg>
