<svg width="16" height="17" viewBox="0 0 16 17" fill="none" xmlns="http://www.w3.org/2000/svg">
<path d="M7.9886 4.07548C5.72223 4.07548 3.89417 5.90354 3.89417 8.16991C3.89417 10.4363 5.72223 12.2643 7.9886 12.2643C10.255 12.2643 12.083 10.4363 12.083 8.16991C12.083 5.90354 10.255 4.07548 7.9886 4.07548ZM7.9886 10.8318C6.52401 10.8318 5.32669 9.63807 5.32669 8.16991C5.32669 6.70176 6.52045 5.508 7.9886 5.508C9.45675 5.508 10.6505 6.70176 10.6505 8.16991C10.6505 9.63807 9.45319 10.8318 7.9886 10.8318ZM13.2055 3.908C13.2055 4.43896 12.7779 4.86301 12.2505 4.86301C12.0616 4.86301 11.877 4.807 11.7199 4.70206C11.5629 4.59712 11.4405 4.44797 11.3682 4.27347C11.2959 4.09896 11.277 3.90694 11.3139 3.72168C11.3507 3.53643 11.4417 3.36626 11.5752 3.2327C11.7088 3.09914 11.879 3.00819 12.0642 2.97134C12.2495 2.93449 12.4415 2.9534 12.616 3.02568C12.7905 3.09797 12.9396 3.22037 13.0446 3.37742C13.1495 3.53447 13.2055 3.71912 13.2055 3.908ZM15.9173 4.87726C15.8568 3.59798 15.5645 2.46479 14.6274 1.53116C13.6937 0.597531 12.5605 0.305326 11.2813 0.241183C9.96277 0.16635 6.01087 0.16635 4.69239 0.241183C3.41666 0.301762 2.28348 0.593967 1.34629 1.5276C0.409092 2.46123 0.12045 3.59441 0.0563078 4.8737C-0.0185251 6.19219 -0.0185251 10.1441 0.0563078 11.4626C0.116887 12.7419 0.409092 13.875 1.34629 14.8087C2.28348 15.7423 3.4131 16.0345 4.69239 16.0986C6.01087 16.1735 9.96277 16.1735 11.2813 16.0986C12.5605 16.0381 13.6937 15.7459 14.6274 14.8087C15.561 13.875 15.8532 12.7419 15.9173 11.4626C15.9922 10.1441 15.9922 6.19575 15.9173 4.87726ZM14.214 12.8773C14.0785 13.2208 13.8738 13.5328 13.6126 13.794C13.3515 14.0551 13.0395 14.2598 12.696 14.3953C11.6447 14.8122 9.15029 14.716 7.9886 14.716C6.82691 14.716 4.32891 14.8087 3.28125 14.3953C2.93771 14.2598 2.62569 14.0551 2.36455 13.794C2.10342 13.5328 1.89873 13.2208 1.76321 12.8773C1.34629 11.826 1.4425 9.33161 1.4425 8.16991C1.4425 7.00822 1.34985 4.51023 1.76321 3.46256C1.89873 3.11902 2.10342 2.807 2.36455 2.54587C2.62569 2.28473 2.93771 2.08005 3.28125 1.94452C4.33248 1.5276 6.82691 1.62381 7.9886 1.62381C9.15029 1.62381 11.6483 1.53116 12.696 1.94452C13.0395 2.08005 13.3515 2.28473 13.6126 2.54587C13.8738 2.807 14.0785 3.11902 14.214 3.46256C14.6309 4.51379 14.5347 7.00822 14.5347 8.16991C14.5347 9.33161 14.6309 11.8296 14.214 12.8773Z" fill="white"/>
</svg>
