<svg width="16" height="17" viewBox="0 0 16 17" fill="none" xmlns="http://www.w3.org/2000/svg">
<path d="M15.9822 1.06768V15.2681C15.9822 15.7563 15.5866 16.1483 15.102 16.1483H11.0325V9.96924H13.1065L13.4165 7.56033H11.029V6.02091C11.029 5.32247 11.2214 4.84852 12.2227 4.84852H13.4984V2.69262C13.2775 2.66411 12.5221 2.59641 11.6383 2.59641C9.79956 2.59641 8.53809 3.7189 8.53809 5.78216V7.56033H6.45702V9.96924H8.53809V16.1519H0.898C0.413368 16.1519 0.0178223 15.7563 0.0178223 15.2717V1.06768C0.0178223 0.583046 0.413368 0.1875 0.898 0.1875H15.0984C15.5866 0.1875 15.9822 0.583046 15.9822 1.06768Z" fill="white"/>
</svg>
