<svg width="16" height="14" viewBox="0 0 16 14" fill="none" xmlns="http://www.w3.org/2000/svg">
<path d="M15.6 2.16992C16 3.56992 16 6.56992 16 6.56992C16 6.56992 16 9.56992 15.6 10.9699C15.4 11.7699 14.8 12.3699 14.1 12.5699C12.7 12.9699 8 12.9699 8 12.9699C8 12.9699 3.3 12.9699 2 12.5699C1.2 12.3699 0.6 11.7699 0.4 10.9699C0 9.56992 0 6.56992 0 6.56992C0 6.56992 0 3.56992 0.4 2.16992C0.6 1.36992 1.2 0.769922 1.9 0.569922C3.3 0.169922 8 0.169922 8 0.169922C8 0.169922 12.7 0.169922 14 0.569922C14.8 0.769922 15.4 1.36992 15.6 2.16992ZM6.4 9.36992L11.2 6.56992L6.4 3.76992V9.36992Z" fill="white"/>
</svg>
