<svg width="45" height="51" viewBox="0 0 45 51" fill="none" xmlns="http://www.w3.org/2000/svg">
<path d="M35.23 33.67C35.1945 33.444 35.1091 33.2288 34.98 33.04C34.8886 32.91 34.7644 32.8065 34.62 32.74C34.49 32.69 34.34 32.68 34.22 32.69C33.97 32.71 33.72 32.81 33.48 32.91C32.96 33.13 32.34 33.29 31.77 33.31C30.62 33.36 29.49 33.39 28.35 33.41L25.49 33.49C24.77 33.53 23.01 33.47 22.71 34.12C22.54 34.5 23.34 34.95 23.88 35.05C24.64 35.19 28.44 35.29 30.44 35.31L31.64 35.27C30.95 35.97 26.08 39.93 24.08 41.29C22.3684 42.3799 20.3888 42.9752 18.36 43.01C15.24 43.16 12.48 40.89 12.2 37.97C12 36.07 12.38 34.23 12.98 32.37L14.04 32.48L14.64 32.54C15.22 32.59 15.78 32.63 16.34 32.6C18.93 32.47 21.64 31.1 23.79 29.13C25.94 27.17 27.56 24.6 27.94 22.05C28.14 20.77 27.94 19.75 27.34 19.05C26.72 18.35 25.72 18.05 24.42 18.09C21.08 18.19 18.25 19.46 16.17 22.06C15.2668 23.226 14.4192 24.434 13.63 25.68L12.61 27.22C12.41 27.5 12.24 27.8 12.03 28.13L11.88 28.38C11.5273 27.8949 11.2748 27.3444 11.1375 26.7606C11.0001 26.1768 10.9806 25.5714 11.08 24.98C11.36 23.15 11.69 21.28 12.37 19.58C14.34 14.59 17.4 10.33 21.62 6.92C22.7459 6.06375 23.8561 5.18693 24.95 4.29C25.48 3.85 25.96 3.34 26.4 2.81C26.4571 2.74604 26.4922 2.6654 26.5 2.58C26.52 2.5 26.53 2.41 26.53 2.33C26.5343 2.16076 26.4891 1.99394 26.4 1.85C26.2957 1.72081 26.1571 1.62374 26 1.57C25.85 1.51391 25.6898 1.49006 25.53 1.5C25.1881 1.57015 24.8666 1.7172 24.59 1.93L23.29 2.83C22.09 3.67 20.89 4.5 19.74 5.43C15.0402 9.20644 11.5013 14.2323 9.52998 19.93C9.10347 21.1222 8.80186 22.3555 8.62998 23.61C8.26998 26.09 8.52998 28.52 10.33 30.53C10.5 30.73 10.58 30.92 10.61 31.09C10.63 31.27 10.61 31.48 10.54 31.75L10.34 32.55C10.02 33.85 9.68998 35.18 9.58998 36.52C9.12998 42.1 13.61 46.29 19.19 45.64C21.89 45.32 24.37 44.4 26.55 42.79C26.81 42.61 27.3 42.22 27.85 41.76L28.07 41.58L30.08 39.86L30.3 39.68C30.5 39.52 30.68 39.35 30.93 39.12L30.99 39.07L30.87 39.62L30.25 41.88C29.74 43.74 29.23 45.59 28.75 47.46L28.65 47.74L28.61 47.87C28.57 48.02 28.52 48.17 28.51 48.35C28.45 48.7 28.51 49.06 28.81 49.43C28.8346 49.4575 28.8662 49.4776 28.9015 49.4882C28.9368 49.4988 28.9743 49.4994 29.01 49.49C29.51 49.41 29.82 49.16 30.04 48.86C30.23 48.59 30.34 48.28 30.44 48.01C30.44 47.97 30.46 47.94 30.47 47.91C32.07 43.41 33.67 38.88 35.23 34.34C35.29 34.14 35.27 33.89 35.23 33.67ZM19.73 21.85C21.1345 20.8065 22.8403 20.2484 24.59 20.26C25.16 20.23 25.48 20.34 25.64 20.51C25.79 20.67 25.85 20.96 25.72 21.49C25.47 22.58 25.12 23.69 24.54 24.6C23.2716 26.6075 21.481 28.2322 19.36 29.3C17.7045 30.1456 15.7927 30.3418 14 29.85C15.59 26.76 17.1 23.92 19.73 21.85Z" fill="black" stroke="black" stroke-linejoin="round"/>
</svg>
