<svg width="18" height="18" viewBox="0 0 18 18" fill="none" xmlns="http://www.w3.org/2000/svg">
<path d="M15.94 8.21533C15.94 4.0732 12.5821 0.715332 8.44 0.715332C4.29787 0.715332 0.940002 4.0732 0.940002 8.21533C0.940002 12.3575 4.29787 15.7153 8.44 15.7153C12.5821 15.7153 15.94 12.3575 15.94 8.21533Z" stroke="white"/>
<path d="M1.44 8.21533H15.44M10.94 8.21533C10.94 10.3803 10.61 12.3183 10.093 13.6963C9.834 14.3873 9.537 14.9123 9.233 15.2553C8.929 15.5983 8.66 15.7153 8.44 15.7153C8.22 15.7153 7.95 15.5983 7.646 15.2553C7.342 14.9123 7.046 14.3873 6.786 13.6963C6.27 12.3183 5.94 10.3803 5.94 8.21533C5.94 6.05033 6.27 4.11233 6.787 2.73433C7.046 2.04333 7.342 1.51833 7.647 1.17533C7.95 0.832332 8.22 0.715332 8.44 0.715332C8.66 0.715332 8.93 0.832332 9.234 1.17533C9.537 1.51833 9.834 2.04333 10.094 2.73433C10.61 4.11233 10.94 6.05033 10.94 8.21533Z" stroke="white"/>
</svg>
