<svg width="49" height="47" viewBox="0 0 49 47" fill="none" xmlns="http://www.w3.org/2000/svg">
<path d="M6.68999 4.5L28.72 11.99C30.4213 12.5236 31.9959 13.3984 33.3478 14.561C34.6997 15.7235 35.8004 17.1494 36.5828 18.7516C37.3652 20.3538 37.8128 22.0986 37.8983 23.8796C37.9837 25.6606 37.7053 27.4402 37.08 29.11L42.9 35.54L34.06 43.54L28.28 37.16C26.4963 37.653 24.6284 37.7629 22.7992 37.4823C20.97 37.2016 19.2209 36.5369 17.6671 35.5319C16.1132 34.5268 14.7897 33.2042 13.7836 31.6509C12.7776 30.0977 12.1118 28.349 11.83 26.52L6.68999 4.5ZM6.68999 4.5L24.74 24.45" stroke="black" stroke-width="4"/>
<path d="M26.93 27.22C26.5873 27.5641 26.1781 27.8348 25.7275 28.0158C25.2768 28.1967 24.794 28.2841 24.3085 28.2726C23.823 28.2611 23.345 28.1509 22.9034 27.9487C22.4618 27.7466 22.066 27.4567 21.74 27.0968C21.414 26.7368 21.1647 26.3143 21.0071 25.8549C20.8496 25.3956 20.7872 24.9089 20.8236 24.4247C20.8601 23.9404 20.9947 23.4686 21.2193 23.038C21.4439 22.6074 21.7537 22.2271 22.13 21.92C22.8409 21.3398 23.7474 21.0548 24.6625 21.1237C25.5775 21.1926 26.4311 21.6103 27.047 22.2904C27.663 22.9705 27.9943 23.8612 27.9725 24.7786C27.9507 25.6959 27.5775 26.5699 26.93 27.22Z" fill="black"/>
</svg>
