<svg width="38" height="58" viewBox="0 0 38 58" fill="none" xmlns="http://www.w3.org/2000/svg">
<g clip-path="url(#clip0_1_11)">
<path d="M19 29C19 26.4804 20.0009 24.0641 21.7825 22.2825C23.5641 20.5009 25.9804 19.5 28.5 19.5C31.0196 19.5 33.4359 20.5009 35.2175 22.2825C36.9991 24.0641 38 26.4804 38 29C38 31.5196 36.9991 33.9359 35.2175 35.7175C33.4359 37.4991 31.0196 38.5 28.5 38.5C25.9804 38.5 23.5641 37.4991 21.7825 35.7175C20.0009 33.9359 19 31.5196 19 29Z" fill="#1ABCFE"/>
<path d="M0 48C0 45.4804 1.00089 43.0641 2.78249 41.2825C4.56408 39.5009 6.98044 38.5 9.5 38.5H19V48C19 50.5196 17.9991 52.9359 16.2175 54.7175C14.4359 56.4991 12.0196 57.5 9.5 57.5C6.98044 57.5 4.56408 56.4991 2.78249 54.7175C1.00089 52.9359 0 50.5196 0 48Z" fill="#0ACF83" fill-opacity="0.5"/>
<path d="M19 0.5V19.5H28.5C31.0196 19.5 33.4359 18.4991 35.2175 16.7175C36.9991 14.9359 38 12.5196 38 10C38 7.48044 36.9991 5.06408 35.2175 3.28249C33.4359 1.50089 31.0196 0.5 28.5 0.5L19 0.5Z" fill="#FF7262"/>
<path d="M0 10C0 12.5196 1.00089 14.9359 2.78249 16.7175C4.56408 18.4991 6.98044 19.5 9.5 19.5H19V0.5H9.5C6.98044 0.5 4.56408 1.50089 2.78249 3.28249C1.00089 5.06408 0 7.48044 0 10Z" fill="#F24E1E"/>
<path d="M0 29C0 31.5196 1.00089 33.9359 2.78249 35.7175C4.56408 37.4991 6.98044 38.5 9.5 38.5H19V19.5H9.5C6.98044 19.5 4.56408 20.5009 2.78249 22.2825C1.00089 24.0641 0 26.4804 0 29Z" fill="#A259FF" fill-opacity="0.1"/>
</g>
<defs>
<clipPath id="clip0_1_11">
<rect width="38" height="57" fill="white" transform="translate(0 0.5)"/>
</clipPath>
</defs>
</svg>
