<svg width="73" height="27" viewBox="0 0 73 27" fill="none" xmlns="http://www.w3.org/2000/svg">
<g clip-path="url(#clip0_1_371)">
<path d="M0.52002 0.169922V20.3299L3.12002 20.3399V10.7399H9.37002V8.19992H3.11002V2.69992H11.26V0.169922H0.52002ZM15.92 4.26992C16.3709 4.26992 16.8033 4.09082 17.1221 3.772C17.4409 3.45319 17.62 3.02079 17.62 2.56992C17.62 2.11905 17.4409 1.68665 17.1221 1.36784C16.8033 1.04903 16.3709 0.869922 15.92 0.869922C15.4692 0.869922 15.0367 1.04903 14.7179 1.36784C14.3991 1.68665 14.22 2.11905 14.22 2.56992C14.22 3.02079 14.3991 3.45319 14.7179 3.772C15.0367 4.09082 15.4692 4.26992 15.92 4.26992ZM14.61 6.79992V20.3399H17.21V6.79992H14.61Z" fill="white"/>
<path fill-rule="evenodd" clip-rule="evenodd" d="M26.82 6.41016C23.38 6.41016 20.98 9.32016 20.98 12.7802C20.98 16.2402 23.38 19.1502 26.82 19.1502C28.4 19.1502 29.7 18.5502 30.65 17.5502V19.3502C30.6566 19.888 30.5565 20.4218 30.3556 20.9207C30.1546 21.4196 29.8568 21.8738 29.4792 22.2569C29.1017 22.64 28.652 22.9445 28.1561 23.1527C27.6601 23.361 27.1279 23.4689 26.59 23.4702C25.76 23.4702 24.94 23.1502 24.29 22.6902L22.99 24.9402C23.9952 25.5899 25.1572 25.9563 26.3533 26.0008C27.5494 26.0452 28.7353 25.7659 29.786 25.1925C30.8366 24.619 31.713 23.7726 32.3227 22.7426C32.9323 21.7126 33.2527 20.5371 33.25 19.3402V6.81016H30.65V8.02016C29.7 7.02016 28.4 6.42016 26.82 6.42016V6.41016ZM23.57 12.7802C23.57 10.6302 25.21 8.94016 27.11 8.94016C29.01 8.94016 30.64 10.6402 30.64 12.7802C30.64 14.9302 29 16.6102 27.11 16.6102C25.21 16.6102 23.57 14.9302 23.57 12.7802Z" fill="white"/>
<path d="M42.59 8.93973C41.8464 8.95286 41.1379 9.25818 40.6176 9.78965C40.0974 10.3211 39.8073 11.036 39.81 11.7797V20.3397H37.21V6.79973H39.81V8.03973C40.199 7.52417 40.7043 7.1078 41.2847 6.82455C41.8651 6.54129 42.5043 6.39916 43.15 6.40973C44.97 6.40973 46.37 7.30973 47.17 8.68973C47.6163 7.99792 48.2272 7.42756 48.9479 7.02967C49.6687 6.63178 50.4768 6.41878 51.3 6.40973C54.25 6.40973 56.1 8.78973 56.1 11.7397V20.3397H53.52V11.7697C53.5228 11.026 53.2326 10.3111 52.7124 9.77965C52.1922 9.24818 51.4836 8.94286 50.74 8.92973C49.9964 8.94286 49.2879 9.24818 48.7676 9.77965C48.2474 10.3111 47.9573 11.026 47.96 11.7697V20.3297H45.36V11.7697C45.3628 11.0277 45.0741 10.3143 44.556 9.7831C44.0379 9.25191 43.3319 8.94546 42.59 8.92973V8.93973Z" fill="white"/>
<path fill-rule="evenodd" clip-rule="evenodd" d="M69.93 8.33983C69.3396 7.72419 68.6298 7.23549 67.844 6.90363C67.0582 6.57178 66.213 6.40375 65.36 6.40983C61.5 6.40983 58.76 9.66983 58.76 13.5698C58.76 17.4698 61.5 20.7298 65.36 20.7298C66.2127 20.7342 67.0574 20.5653 67.843 20.2336C68.6285 19.9018 69.3385 19.4141 69.93 18.7998V20.3398H72.52V6.79983H69.92V8.33983H69.93ZM61.35 13.5698C61.35 10.9898 63.33 8.93983 65.64 8.93983C67.94 8.93983 69.93 10.9898 69.93 13.5698C69.93 16.1498 67.95 18.1898 65.64 18.1898C63.34 18.1898 61.35 16.1498 61.35 13.5698Z" fill="white"/>
</g>
<defs>
<clipPath id="clip0_1_371">
<rect width="73" height="26" fill="white" transform="translate(0 0.169922)"/>
</clipPath>
</defs>
</svg>
